<?xml version="1.0" encoding="utf-8"?>
<!-- Generator: Adobe Illustrator 16.0.0, SVG Export Plug-In . SVG Version: 6.00 Build 0)  -->
<!DOCTYPE svg PUBLIC "-//W3C//DTD SVG 1.1//EN" "http://www.w3.org/Graphics/SVG/1.1/DTD/svg11.dtd">
<svg version="1.1" id="Layer_1" xmlns="http://www.w3.org/2000/svg" xmlns:xlink="http://www.w3.org/1999/xlink" x="0px" y="0px"
	 width="512px" height="512px" viewBox="0 0 480 480" enable-background="new 0 0 480 480" xml:space="preserve">
<path fill="#FFFFFF" d="M456,176H232c-10.367,0.051-19.531,6.75-22.719,16.617c-3.078-0.406-6.18-0.609-9.281-0.617h-16
	c-4.418,0-8-3.582-8-8v-16.801c19.852-11.27,32.086-32.371,32-55.199V74.52c19.52-9.258,31.969-28.918,32-50.52V0H104
	C90.746,0,80,10.746,80,24v88c-0.086,22.828,12.148,43.93,32,55.199V184c0,4.418-3.582,8-8,8H88c-39.746,0.043-71.957,32.254-72,72
	v80c0.031,8.684,2.914,17.117,8.207,24H0v64h16v48h16v-48h416v48h16v-48h16V200C480,186.746,469.254,176,456,176z M192,360
	c0,4.418-3.582,8-8,8h-8v-32h8c4.418,0,8,3.582,8,8V360z M208,368h-1.473c0.949-2.563,1.445-5.27,1.473-8V368z M128,184v-10.016
	c0.273,0.07,7.551,1.449,8.32,1.535c5.102,0.641,10.266,0.641,15.367,0c0.746-0.086,8.047-1.465,8.313-1.535V184
	c0.027,9.898,6.125,18.766,15.359,22.328c-3.027,14.914-16.141,25.633-31.359,25.633s-28.332-10.719-31.359-25.633
	C121.875,202.766,127.973,193.898,128,184z M96,24c0-4.418,3.582-8,8-8h120v8c-0.027,22.082-17.918,39.973-40,40H96V24z M96,112V80
	h96v32c-0.004,14.578-6.629,28.363-18.012,37.469c-11.383,9.109-26.285,12.551-40.508,9.355c-3.477-0.781-6.852-1.953-10.066-3.496
	C106.598,147.48,95.887,130.559,96,112z M32,344v-80c0.035-30.914,25.086-55.965,56-56h8.719
	c3.883,23.086,23.871,39.992,47.281,39.992s43.398-16.906,47.281-39.992H200c2.68,0.023,5.352,0.23,8,0.625V344
	c0-13.254-10.746-24-24-24H88c-4.418,0-8-3.582-8-8v-48H64v48c0,13.254,10.746,24,24,24h72v32H56C42.746,368,32,357.254,32,344z
	 M464,416H16v-32h448V416z M264,368h-40V200c0-4.418,3.582-8,8-8h224c4.418,0,8,3.582,8,8v168H264z"/>
<path fill="#FFFFFF" d="M344,248c-17.672,0-32,14.328-32,32s14.328,32,32,32s32-14.328,32-32S361.672,248,344,248z M344,296
	c-8.836,0-16-7.164-16-16s7.164-16,16-16s16,7.164,16,16S352.836,296,344,296z"/>
</svg>
