<?xml version="1.0" encoding="utf-8"?>
<!-- Generator: Adobe Illustrator 23.0.3, SVG Export Plug-In . SVG Version: 6.00 Build 0)  -->
<svg version="1.1" id="Layer_1" xmlns="http://www.w3.org/2000/svg" xmlns:xlink="http://www.w3.org/1999/xlink" x="0px" y="0px"
	 viewBox="0 0 553 410" style="enable-background:new 0 0 553 410;" xml:space="preserve">
<style type="text/css">
	.st0{fill-rule:evenodd;clip-rule:evenodd;fill:#F3EDF4;}
	.st1{fill-rule:evenodd;clip-rule:evenodd;fill:#D7F8FF;}
	.st2{fill:#FFD7B3;}
	.st3{fill:#0B4651;}
	.st4{opacity:0.7;fill:#D6F1EE;enable-background:new    ;}
	.st5{fill:none;stroke:#0B4651;stroke-width:0.7716;stroke-linecap:round;stroke-linejoin:round;}
	.st6{fill:#3C0C72;}
	.st7{fill:#7712CD;}
	.st8{opacity:0.2;fill:#0B4651;enable-background:new    ;}
	.st9{fill:#197AFF;}
	.st10{fill:url(#Rectangle-53_1_);}
	.st11{opacity:0.1;fill:#0B4651;enable-background:new    ;}
	.st12{fill:#FFFFFF;}
	.st13{fill:url(#Path-291_1_);}
	.st14{fill:none;stroke:#0B4651;stroke-width:0.704;stroke-linecap:round;stroke-linejoin:round;}
	.st15{fill:url(#Path-310_1_);}
	.st16{fill:url(#Path-310-Copy_1_);}
	.st17{fill:#E2BA14;}
	.st18{fill:#FCED05;}
	.st19{fill:none;stroke:#FFFFFF;stroke-width:0.5;stroke-linecap:round;stroke-linejoin:round;}
	.st20{fill:url(#Oval-19-Copy-2_1_);}
	.st21{fill:none;stroke:#0B4651;stroke-width:0.576;stroke-linecap:round;stroke-linejoin:round;}
	.st22{fill:none;stroke:#FFFFFF;stroke-width:0.864;}
	.st23{fill:url(#Rectangle-47_1_);}
	.st24{fill:none;stroke:#7712CD;stroke-width:1.6245;}
	.st25{opacity:0.4;fill:url(#Combined-Shape_6_);enable-background:new    ;}
	.st26{opacity:0.5;fill:#0B4651;enable-background:new    ;}
	.st27{opacity:0.5;fill:#54B454;enable-background:new    ;}
	.st28{opacity:0.4;fill:#FFFFFF;enable-background:new    ;}
	.st29{opacity:0.3;fill:#FFFFFF;enable-background:new    ;}
	.st30{opacity:0.4;fill:#0B4651;enable-background:new    ;}
	.st31{opacity:0.2;fill:#FFFFFF;enable-background:new    ;}
	.st32{opacity:0.3;fill:#0B4651;enable-background:new    ;}
	.st33{fill:none;stroke:#E2BA14;stroke-width:1.9201;stroke-linecap:round;stroke-linejoin:round;}
	.st34{fill:none;stroke:#0B4651;stroke-width:0.8122;stroke-linecap:round;stroke-linejoin:round;}
</style>
<path class="st0" d="M58.4,266.1c-0.6-0.3-0.9-0.8-1.4-1.2c-8.2-7.8-15.5-16.4-21.8-25.8C19.8,216,13.2,190.6,15.1,163
	c1.7-24.5,10.5-46.5,23.9-66.8C52.2,76,69.1,59.4,88.4,45c14.8-11.1,30.4-20.7,47.7-27.3c16.4-6.2,33.3-9.8,50.9-8.7
	c13.9,0.9,26.9,5,39.2,11.2c11.8,6,22.5,13.6,32.6,21.9c25,20.5,52.4,37.2,80.7,52.6c13.9,7.5,27.7,15.3,40.4,24.7
	c12.1,9,23.1,19.1,31.7,31.6c11.9,17.2,16.6,36.2,14.6,56.9c-1.4,14.3-5.7,27.6-12.2,40.3c-0.6,1.2-1.3,1.6-2.6,1.6
	c-27.7,0-55.5,0-83.2,0c-2.7,0-5.3,0-8,0c-4.6-0.1-8.1,3.1-8.2,7.7c-0.1,6.2-0.1,12.4,0,18.7c0.1,4.7,3.4,7.7,8.1,7.7
	c15.8,0,31.6,0.1,47.4-0.1c3.9,0,6.2,2,8.5,4.9c-9,5.4-18.2,9.5-27.8,12.9c-10.2,3.6-20.7,6.1-31.3,8.4c-26.3,5.6-52.9,7.7-79.8,8.2
	c-1.3,0-2-0.4-2.6-1.6c-8.2-16.9-16.5-33.7-24.8-50.5c-0.3-0.7-0.3-1.6-0.4-2.4c-0.3-2.4-0.3-4.9-0.9-7.3c-0.4-1.6-1.5-2.9-2.3-4.4
	c-0.2,0.1-0.4,0.1-0.6,0.2c-0.1,0.7-0.2,1.4-0.3,2.2c-0.3,2.5-1.7,3.9-4.3,3.9c-2,0-4.1,0-6.1,0c-2.5-0.1-3.9-1.5-4.3-4
	c-0.2-1-0.7-2.1-1.3-3c-2.3-3.1-4.6-6.1-7-9c-0.6-0.8-1.5-1.5-2.4-2c-3.3-1.7-6.8-3.2-10.1-4.9c-1.3-0.6-2-0.4-2.9,0.7
	c-3.2,4-6.5,8-9.8,11.9c-0.4,0.5-0.8,0.9-1.4,1.6c-0.5-0.5-1-1-1.3-1.4c-3.9-5-7.8-10-11.8-14.9c-0.6-0.7-1.7-1.4-2.6-1.4
	c-5.4-0.1-10.8-0.1-16.2-0.1c-0.5,0-1,0.1-1.8,0.1c0.7,4.8,1.4,9.4,2.1,14.4c-10.6,0-21,0-31.6,0c0.3,0.9,0.4,1.5,0.6,2.1
	c2.6,6.7,7.4,11.4,14.1,14.2c6.2,2.6,12.8,3.5,19.4,4.5c11.7,1.8,23.4,3.6,35.2,5.4c1.8,0.3,2.2,1,1.3,2.6c-0.5,0.8-1.1,1.5-1.7,2.3
	c-7.4,9.5-14.8,19-22.1,28.6c-0.8,1.1-1.6,1.3-2.9,0.9c-22.2-6.1-43.3-14.6-62.4-27.8c-1.8-1.2-3.6-2.4-5.3-3.8"/>
<path class="st1" d="M236.3,318.1c0,0-56.9,1.4-104.6-12.8l-17.1-19.4l-15.6-17.3l-11.8-24c0,0,14.1-21.1,16.4-21.1
	c2.3,0,30.5-6.7,38.9-5.9c8.4,0.8,55,4.4,57.3,5.9c2.3,1.5,31.4,23.2,31.4,23.2l32,31.8L236.3,318.1z"/>
<path class="st1" d="M414.1,248.3c0,0-19,30.3-42.8,43.1c-23.8,12.8-41.3,5.2-41.3,5.2l-25.9-3.6c0,0,0.6-19.4,0-20.8
	c-0.6-1.3,1.7-25.1,3-25.7c1.3-0.6,17.1-9.7,21.3-10.3c4.2-0.6,29.5-2.7,33.3-2.5c3.8,0.2,34.3,0,34.3,0L414.1,248.3z"/>
<g id="Pages_1_">
	<g id="Home---Approach-v3-_1_" transform="translate(-889.000000, -2334.000000)">
		<g id="Section-1_1_" transform="translate(221.000000, 2335.000000)">
			<g id="Led-by-Proven-Managers" transform="translate(16.000000, 0.000000)">
				<g transform="translate(653.000000, 0.000000)">
					<g id="Group-51" transform="translate(86.655153, 37.219547)">
						<path id="Path-312" class="st2" d="M275.2,203.9c-1,11.1-2.4,18.3-4.2,21.5c-2.3,4.1-6.7,17.7-10.4,22.6c-1,2.5-1.5,3.9-1.7,4
							h14.5c-1.6-2.3-4-3.6-7.1-4c1.5-2.5,9.8-17.4,10.9-20.7c1.1-3.3,7.6-18.6,7.2-21.8C281.6,204,278.5,203.5,275.2,203.9z"/>
						<path id="Path-312-Copy" class="st3" d="M260.6,248.1c-1,2.5-1.5,3.9-1.7,4h14.5c-1.6-2.3-4-3.6-7.1-4H260.6z"/>
						<g id="Group-43" transform="translate(0.000000, 186.420858)">
							<polygon id="Path-321" class="st4" points="49.1,162.6 49.1,134.9 106,134.9 106,148.9 120.7,148.9 120.7,109.4 199.2,109.4 
								199.2,148.4 250.2,148.4 250.2,163.2 							"/>
							<ellipse id="Oval-21" class="st5" cx="190.4" cy="173.7" rx="6.9" ry="2.1"/>
							<ellipse id="Oval-21-Copy" class="st5" cx="206.9" cy="168.5" rx="3.4" ry="1"/>
							<polygon id="Path-274" class="st6" points="237,163.8 237,65.7 325.7,65.7 325.7,87.4 348,87.4 348,113 369.7,113 
								369.7,138.6 390.6,138.6 390.6,163.8 							"/>
							<polygon id="Path-274-Copy" class="st7" points="228.3,163.8 228.3,65.7 300.8,65.7 300.8,163.8 							"/>
							<path id="Combined-Shape_5_" class="st8" d="M320,65.7l-2.8,19.8c-1.6,11.1-11.1,19.4-22.3,19.4h-66.7V65.7H320z"/>
						</g>
						<path id="Path-296" class="st3" d="M49,86.1"/>
						<g id="Group-49" transform="translate(281.244619, -0.000000)">
							<path id="Path-308" class="st2" d="M18.1,131.2l12.6-3.8c3.2-10,5.7-15.8,7.5-17.6c1.6-1.6,4.4-2.6,8.5-3.2l-5.7,7.1
								l-6.2,18.4l-16.7,6.5L18.1,131.2L18.1,131.2z"/>
							<path id="Path-301" class="st2" d="M76.8,266l5.9,29.5c-3.9,0.5-6.5,1.2-7.9,1.9c-1.4,0.8-2.3,1.5-2.7,2.4h15.3l-1.9-26.1
								L76.8,266z"/>
							<path id="Path-301-Copy" class="st3" d="M82.6,295.4c-3.9,0.5-6.5,1.2-7.9,1.9c-1.4,0.8-2.3,1.5-2.7,2.4h15.3l-0.4-4.3H82.6z
								"/>
							<path id="Path-302" class="st2" d="M96.5,279.2l12.5,35.2c-0.3,3.6-0.9,6.1-1.7,7.5c-2.3,1-3.8,2.1-4.4,3.3h7.5l4-10.1
								l-7-35.9L96.5,279.2L96.5,279.2z"/>
							<path id="Path-302-Copy" class="st3" d="M109,314.4c-0.1,3.3-0.6,5.6-1.5,7c-2.3,1-3.8,2.3-4.6,3.7h7.5l5-10.7l-1.9-4.1
								c-0.7,1.6-1.3,2.6-1.9,3.1C111.1,313.8,110.2,314.2,109,314.4z"/>
							<path id="Path-300" class="st3" d="M96.7,233.9c-9.3,3.7-16.3,9.7-20.8,18c-1.8,3.3-1.4,9.7,1.2,19.4
								c6.3,3,11.3,5.3,14.9,6.9c3.6,1.6,8.8,2.2,15.7,1.8c0-7.5,0-14.1,0-19.9c0-8.6,3.5-8.5,3.5-23.1L96.7,233.9z"/>
							<polygon id="Path-297" class="st9" points="116,188.3 120.6,155.5 117.3,158.3 107.8,187 							"/>
							
								<linearGradient id="Rectangle-53_1_" gradientUnits="userSpaceOnUse" x1="-467.1116" y1="211.709" x2="-466.3763" y2="210.6798" gradientTransform="matrix(86.7781 52.1415 36.2223 -60.284 32930.043 37200.2734)">
								<stop  offset="0" style="stop-color:#7712CD"/>
								<stop  offset="1" style="stop-color:#121B46"/>
							</linearGradient>
							<path id="Rectangle-53" class="st10" d="M59.3,88.8l69.7,41.9c2.1,1.2,2.7,3.9,1.5,6l-27.7,46.1c-1.2,2.1-3.9,2.7-6,1.5
								l-69.7-41.9c-2.1-1.2-2.7-3.9-1.5-6l27.7-46.1C54.5,88.2,57.2,87.5,59.3,88.8z"/>
							<path id="Combined-Shape_1_" class="st11" d="M60.5,89.5l-9.4,67.3l-24-14.4c-2.1-1.2-2.7-3.9-1.5-6l27.7-46.1
								c1.2-2.1,3.9-2.7,6-1.5L60.5,89.5z"/>
							<polygon id="Rectangle-54" class="st12" points="79.3,146.5 71.4,132.1 87.8,131.7 							"/>
							<path id="Path-299" class="st8" d="M66.4,166.4l25.7,10.4c1.9,0.8,4.1,0.1,5.3-1.6c0.6-1,1-1.8,1-2.4c0-1.7,0.9-6.8,6.8-6.4
								c2,0.2,8.6-4.5,11.9-8.5c0.9-1.1-0.5-4,0.5-4.8c0.1-0.1,0.4,2.3,1.3,1.5c1.5-1.4,3.5-6.1,3.8-5.1c0.1,0.4-1.2,2.7-3.8,6.9
								l-13.3,21.6l-6.6,7.7L66.4,166.4z"/>
							<path id="Path-295" class="st2" d="M79.9,175.5l-1.8-4.4l-0.3-0.8c-0.2-0.7-0.8-1.1-1.5-1.1l0.3,2.8l-4.4-2.5
								c-0.5,1.3-0.2,2.4,1,3.5c1.2,1,2.5,2.4,3.9,4.1L79.9,175.5z"/>
							<path id="Path-173_1_" class="st3" d="M103.8,173.2c-5.4,3.3-8.1,7.2-8.1,11.7c0,3.2,3.5,6.2,5.3,8.9
								c1.1,1.7,0.7,4.1,0.9,4.2c0.6,0.4,4.8,3,6.8,0c0.4-0.6-0.6-4.7-3.2-12.2L103.8,173.2z"/>
							<polygon id="Path-292" class="st2" points="101.3,189.3 103.6,197.9 111.8,199.4 104,187 							"/>
							<linearGradient id="Path-291_1_" gradientUnits="userSpaceOnUse" x1="76.5378" y1="206.0609" x2="115.537" y2="206.0609">
								<stop  offset="0" style="stop-color:#7712CD"/>
								<stop  offset="1" style="stop-color:#121B46"/>
							</linearGradient>
							<path id="Path-291" class="st13" d="M106.5,195.9l-14.6,0.4c-0.9,0-1.6-0.5-2-1.2l-9.8-19.6c-0.4-0.9-1.5-1.2-2.4-0.8
								c0,0,0,0,0,0l0,0c-0.9,0.5-1.4,1.5-1.1,2.5l6.2,21c1.2,3.9,4.3,6.9,8.3,7.8l6.7,1.6c-1.2,4.1-1.8,7-1.8,8.8
								c0.1,3.6,0.4,3.8,0.6,6.1c0.4,4-0.1,8.1-1.5,12.3c8.3,2.7,13.5,3.6,15.4,2.7c1.9-1,3.5-11,4.9-30.1l-2.6-11.3L106.5,195.9
								L106.5,195.9z"/>
							<path id="Path-294" class="st8" d="M96.1,215.2c3.4-2.6,5.5-4.2,6.3-4.9c1-0.9,1.4-1.1,0.9-1.2c-1-0.3-2.8-0.8-5.3-1.7
								c-0.6,1.9-1,3.3-1.2,4.3C96.5,212.6,96.3,213.8,96.1,215.2z"/>
							
								<g id="Group-24_1_" transform="translate(97.497181, 111.389224) rotate(22.000000) translate(-97.497181, -111.389224) translate(88.884905, 102.949711)">
								<path id="Path-171_1_" class="st8" d="M36.2,68.2c0,8.9,1.9,13.4,5.6,13.4c5.6,0,8.6-5.6,8.6-10.5
									C50.5,67.8,45.8,66.8,36.2,68.2z"/>
								<path id="Path-171-Copy_1_" class="st2" d="M35.6,67.6c-0.6,8.8,1,13.2,4.7,13.2c5.6,0,7.8-5.6,7.9-10.5
									C48.3,67.1,44.1,66.1,35.6,67.6z"/>
							</g>
							<path id="Path-172_1_" class="st3" d="M100.1,176.8c1.4,2.6,3.4,3.9,6,3.9c1.5,1.8-2.2,5.1-2.9,8.1c-0.7,3.5,3.2,5.9,3.5,7.1
								c9.3-0.1,8.6,13.6,8.8,15.8c0.7,0.9,10.8-5.9,2.3-19.1c-1-1.6,3.1-3.5,2.7-7.5c-0.4-4.3-3.5-4.1-4.1-7.3
								c-0.8-4.5-2.5-9.5-9.6-9.5C100.8,168.5,98.6,171.2,100.1,176.8z"/>
							<path id="Path-293" class="st14" d="M98,207.4c4.5,1.3,7.3,2.1,8.4,2.4C107.5,210.2,104.7,209.4,98,207.4z"/>
							<path id="Path-298" class="st2" d="M117.6,158.4c0.4-0.7,0.5-1.2,0.5-1.6c-0.3-2.6-0.9-4-0.5-4.1c0.5-0.1,1.1,0.6,1.8,2.3
								l3.5-5.7c0,1.6-0.1,2.8-0.3,3.4c-0.7,1.9-2.4,5.2-2.7,5.6C119.3,159.1,118.5,159.1,117.6,158.4z"/>
						</g>
						<g id="Group-50" transform="translate(252.771381, 18.685537)">
							<path id="Path-311" class="st2" d="M36.8,178.3c3.8,10.3,6.2,18.5,7.3,24.6c-1.1,5.6,1.9,23.1,0.7,30c-0.1,0.3,1.5,0.3,4.6,0
								c6.8,0.3,10.2,0.3,10.2,0c0-4.2-10-3.5-10-4.2c0.7-16.4,1.1-25.5,1.1-27.2c0-2.1-1.3-9.8-3.9-23.2L36.8,178.3L36.8,178.3z"/>
							<path id="Path-311-Copy" class="st3" d="M45.1,229.1c0,1.5-0.1,2.8-0.3,3.9c-0.1,0.5,14.8,0.4,14.8,0c0-4.2-10-3.5-10-4.2
								L45.1,229.1z"/>
							
								<linearGradient id="Path-310_1_" gradientUnits="userSpaceOnUse" x1="-386.1087" y1="187.3993" x2="-385.9295" y2="187.6871" gradientTransform="matrix(15.1279 0 0 -26.5137 5864.6074 5159.7764)">
								<stop  offset="0" style="stop-color:#8A44FA"/>
								<stop  offset="1" style="stop-color:#1979FF"/>
							</linearGradient>
							<path id="Path-310" class="st15" d="M23.3,169c0,1-0.1,1.8-0.2,2.6c-0.3,3.7-0.9,9.3-1.8,17c0.5,1.1,1.7,2.1,3.5,2.8
								c1.8,0.7,3.9,0.9,6.3,0.5l3.7-9.1C27.2,171.3,23.4,166.7,23.3,169z"/>
							
								<linearGradient id="Path-310-Copy_1_" gradientUnits="userSpaceOnUse" x1="-384.2051" y1="190.7496" x2="-383.4694" y2="189.7199" gradientTransform="matrix(29.4311 0 0 -37.8907 11333.9414 7379.3403)">
								<stop  offset="0" style="stop-color:#8A44FA"/>
								<stop  offset="1" style="stop-color:#1979FF"/>
							</linearGradient>
							<path id="Path-310-Copy" class="st16" d="M25,158.8c-2,4.2-2.7,7.7-2.1,10.4c0.6,2.8,4.6,8,12.2,15.8l3.3,6.9
								c2.7-0.4,4.6-0.7,5.6-0.9c1-0.2,2.7-1.2,5-2.8l-5.5-29.9L25,158.8z"/>
							<polygon id="Path-307" class="st3" points="36.5,112.7 48,111.6 50.1,118.8 43.3,120.7 							"/>
							<path id="Path-304" class="st2" d="M53.9,90.8c-0.7,9.4-2.1,14.9-4,16.6c-1.9,1.6-5.2,2.1-9.8,1.3l1.1,6.1l-4.6,2.2l-4.3-5.8
								l7.8-22.3L53.9,90.8z"/>
							<path id="Path-303" class="st3" d="M35.5,104.1c4.2,0,6.7-1.2,7.7-3.5c1.4-3.5,0.3-4.9,1.5-6.2c1.3-1.3,1.5,4.1,3.6,4.1
								c2.6,0.1,3.7-1.7,5.9-3.9c1.5-1.5,2.2-3.9,2.3-7.1c-7.9-0.2-13.7-1.3-17.4-3.4c-5.4,1.1-7.8,4.6-8.2,8.8
								C30.6,97.5,32.1,101.2,35.5,104.1z"/>
							<path id="Path-306" class="st2" d="M50.3,130.1l13.3,7.8c9.7,1.1,16,2.1,18.8,3.3c2.9,1.1,5.7,1.5,8.6,1.2l-5.1-3l3.4-2.4
								l0,0c-1-0.4-2.2-0.3-3.2,0.1l-2.2,0.9l-18.3-5.6L54.1,124L50.3,130.1z"/>
							<path id="Path-305" class="st3" d="M31.5,110.6c6.7,0.7,11.8,2.5,15.2,5.2c3.4,2.7,6.9,5.8,10.5,9.3l-5.8,7.3l-9.4-3.5
								c1.7,17.1,2.5,28.3,2.5,33.7c-4.2,2.8-11.5,2.3-21.6-1.3c-0.1-18.4,0.5-31,1.8-37.7C26,116.8,28.3,112.5,31.5,110.6z"/>
							<path id="Path-309" class="st2" d="M67.7,92.8l4.7-1.6l0,0c-0.4,1-1.1,1.9-2.1,2.4c-2.8,1.4-4,1.9-3.7,1.6
								C67.1,94.7,67.4,93.9,67.7,92.8z"/>
						</g>
					</g>
					<g id="Group-47" transform="translate(26.220378, 89.743936)">
						<path id="Path-290-Copy" class="st17" d="M68.8,270.1c-1.1,4.2-1.1,6.4,0,6.6c1.1,0.2,6.3,0.3,15.9,0.3c2.4-1.4,3.3-2.4,2.6-3
							c-0.7-0.6-4.3-1.9-10.9-3.9H68.8L68.8,270.1z"/>
						<path id="Path-286" class="st18" d="M64.8,148.6c-3.7,1.8-6.4,4.3-7.9,7.4c-1.5,3-0.1,14.1,2.3,19.8c0.9,2.1,3,2.1,6.3,0
							L63,147.3"/>
						<polygon id="Path-285" class="st3" points="62.7,196.7 61.2,270.2 77.4,271 89.8,196.7 						"/>
						<path id="Rectangle-49" class="st3" d="M99.6,82.8l65.8-2.3c2.1-0.1,3.9,1.6,4,3.7l1.6,46.3c0.1,2.1-1.6,3.9-3.7,4l-65.8,2.3
							c-2.1,0.1-3.9-1.6-4-3.7l-1.6-46.3C95.8,84.6,97.5,82.9,99.6,82.8z"/>
						<g id="Group-46" transform="translate(0.000000, 35.394750)">
							<path id="Path-276" class="st2" d="M81.5,119.1l-3.2-11.4l1.3-1.8c2.4-3.2,2.5-7.7,0.2-11l-5.3-7.6L68,89.8
								c-3.7,5.8-5.3,8.9-5,9.3c0.3,0.3,3.3,3.5,9,9.6v10.4L81.5,119.1L81.5,119.1z"/>
							<path id="Path-278" class="st3" d="M66.9,98.4c1.1-3.8,2.1-6.9,3.1-9.3c1.1-0.2,2.9-0.6,3.7-0.9c1.6-0.6,3.3-1.1,5.2-1.7
								c1.5-1.6,1.8-3,0.9-4.2c-0.9-1.2-1.7-1.2-2.5,0c-0.5-4.7-4-6.6-10.3-5.5c-9.6,1.6-6.3,13.5-7.2,13.7
								c-0.9,0.2-4.8,5.5-3.8,9.8c1,3.9,7.1,8.3,13,7.1c4.2-0.8,5.6-2.7,4.1-5.7L66.9,98.4z"/>
							<path id="Path-279" class="st7" d="M64.5,97.1c-3.1-1.9-4.6-4.4-4.6-7.4c-1.2,0.9-1.5,2.4-0.9,4.4c1,2.5,2.6,4.1,4.6,4.8
								C63.6,98.3,63.9,97.7,64.5,97.1z"/>
							<path id="Path-280" class="st19" d="M59.1,90.5c0.2,3,2,5.6,5.3,7.7"/>
							<g id="Group-45" transform="translate(5.887512, 22.451517)">
								
									<linearGradient id="Oval-19-Copy-2_1_" gradientUnits="userSpaceOnUse" x1="536.5462" y1="77.0607" x2="536.4215" y2="76.0229" gradientTransform="matrix(7.1935 0 0 -7.5308 -3800.0122 652.4118)">
									<stop  offset="0" style="stop-color:#77BD72"/>
									<stop  offset="1" style="stop-color:#2CA495"/>
								</linearGradient>
								<ellipse id="Oval-19-Copy-2" class="st20" cx="59" cy="77.3" rx="3.2" ry="3.4"/>
								<ellipse id="Oval-19" class="st7" cx="58.2" cy="77.3" rx="3.2" ry="3.4"/>
								<ellipse id="Oval-19-Copy" class="st12" cx="57.8" cy="77.3" rx="1.2" ry="1.2"/>
							</g>
						</g>
						<path id="Path-283" class="st2" d="M93.1,100c0.6-4.6,1.5-7.6,2.7-8.9c0.3-0.3,0.1,1.5,0.3,1.3c0.9-0.8,2-2.5,2.5-2.5
							c1.6-0.1,3.1,6.7,1.1,8.5c-0.5,0.5-2.1,1.4-2.7,1.6c-0.6,0.3-1.3,0.9-2.1,1.8L93.1,100z"/>
						<path id="Path-284" class="st2" d="M135.5,137.9l5.1-3.2l2.5-3.4c3.2-0.9,5.2-0.9,5.9,0c0.7,0.9,0,2.9-2.3,5.7l-11.2,3.9
							L135.5,137.9L135.5,137.9z"/>
						<path id="Path-275" class="st18" d="M58.5,192.1c-0.7-26.5,2-45,8.1-55.5c2.6-4.5,4.6-9.9,7.6-14.7c2.5-4,8.1-11,16.6-21.1
							l0,0c1-1.1,2.6-1.4,3.9-0.8l0,0c1.1,0.6,1.5,1.9,0.9,3c0,0.1-0.1,0.2-0.1,0.2c-7.7,11-12.4,18.5-14.2,22.3
							c-5.5,12-3.9,22.3-1.7,24.1c1.6,1.4,10.7,2,27.1-1.9c5.7-1.3,14.9-5,27.7-11.1l0,0c1.3-0.6,2.8-0.1,3.4,1.2
							c0,0.1,0,0.1,0.1,0.1l0,0c0.6,1.4,0,3.1-1.4,3.8c-13.1,7.3-22.2,12.1-27.2,14.2c-12,5.1-23.1,6.4-23.1,8.1
							c0,4.1-0.7,21.3,2.5,22.8c3.2,1.5,4.8,9.6,3.2,10.8c-0.8,0.6-5,2.2-12.2,2.5c-7.9,0.4-18.9-0.7-21-2.5
							C55.7,195.5,55.7,193.6,58.5,192.1z"/>
						<path id="Combined-Shape_2_" class="st8" d="M83.7,233c-8-3.5-13.7-11.4-13.7-20.7c0-1,0.1-2.1,0.2-3.1l8.5-60.5
							c0.2,0.5,0.5,0.8,0.7,1c1.6,1.4,10.7,2,27.1-1.9c5.7-1.3,14.9-5,27.7-11.1c1.3-0.6,2.8-0.1,3.4,1.2c0,0,0,0.1,0.1,0.1
							c0.6,1.4,0,3.1-1.4,3.8c-13.1,7.3-22.2,12.1-27.2,14.2c-12,5.1-23.1,6.5-23.1,8.1c0,4.1-0.7,21.3,2.5,22.8
							c3.2,1.5,4.8,9.6,3.2,10.8c-0.3,0.2-1.1,0.6-2.3,1L83.7,233z M84.4,108.4c1.9-2.3,4-4.8,6.3-7.6c1-1.1,2.6-1.5,3.9-0.8
							c1.1,0.6,1.5,1.9,0.9,3c0,0.1-0.1,0.2-0.1,0.2c-6.5,9.3-10.8,16-13.1,20.3L84.4,108.4z"/>
						<path id="Path-282" class="st21" d="M86.3,156.1v9.1"/>
						<path id="Path-277" class="st21" d="M55.7,80.3"/>
						<path id="Path-281" class="st21" d="M76.9,154.9c-0.4-11.6,0.3-19.3,1.9-23.2"/>
						<path id="Path-287" class="st21" d="M71.5,189.7c9,1,14.9,0.8,17.8-0.7"/>
						<path id="Path-288" class="st21" d="M80.7,150.7c0.9,8.4,0.9,14.2,0,17.2c-1.3,4.5,0.3,12.3,1.3,14.1c0.7,1.2,1,3.9,1,8.3"/>
						<path id="Path-289" class="st22" d="M81.4,210c-0.4,0.5-1.8,1.4-4.3,2.5l-7.6,58.9"/>
						<path id="Path-290" class="st18" d="M61.3,270.1c-1.1,4.2-1.1,6.4,0,6.6c1.1,0.2,6.3,0.3,15.9,0.3c2.4-1.4,3.3-2.4,2.6-3
							c-0.7-0.6-4.3-1.9-10.9-3.9H61.3L61.3,270.1z"/>
					</g>
					<g id="Group-48" transform="translate(13.749711, 310.713283)">
						<rect id="Rectangle-50" x="57.1" y="56" class="st6" width="56.3" height="20.8"/>
						<rect id="Rectangle-50-Copy" x="98.3" y="56" class="st3" width="15.1" height="20.8"/>
					</g>
					<g id="Group-44" transform="translate(33.801699, 0.000000)">
						
							<linearGradient id="Rectangle-47_1_" gradientUnits="userSpaceOnUse" x1="265.0325" y1="223.962" x2="584.7935" y2="223.962" gradientTransform="matrix(1 0 0 1 -200.3965 -9)">
							<stop  offset="0" style="stop-color:#7712CD;stop-opacity:0.64"/>
							<stop  offset="1" style="stop-color:#FCED05;stop-opacity:0.29"/>
						</linearGradient>
						<path id="Rectangle-47" class="st23" d="M111.5,105.4h250.3c12.5,0,22.6,10.1,22.6,22.6c0,1-0.1,2.1-0.2,3.1l-24.4,174
							c-1.6,11.1-11.1,19.4-22.3,19.4H87.2c-12.5,0-22.6-10.1-22.6-22.6c0-1,0.1-2.1,0.2-3.1l24.4-174
							C90.8,113.7,100.3,105.4,111.5,105.4z"/>
						<path id="Rectangle-47-Copy-6" class="st24" d="M101.2,94.4h250.3c12.5,0,22.6,10.1,22.6,22.6c0,1-0.1,2.1-0.2,3.1l-24.4,174
							c-1.6,11.1-11.1,19.4-22.3,19.4H76.9c-12.5,0-22.6-10.1-22.6-22.6c0-1,0.1-2.1,0.2-3.1l24.4-174
							C80.4,102.7,90,94.4,101.2,94.4z"/>
						
							<linearGradient id="Combined-Shape_6_" gradientUnits="userSpaceOnUse" x1="87.148" y1="122.5155" x2="384.398" y2="122.5155">
							<stop  offset="0" style="stop-color:#3B33EA;stop-opacity:0.64"/>
							<stop  offset="1" style="stop-color:#4E3DB9;stop-opacity:0.29"/>
						</linearGradient>
						<path id="Combined-Shape_3_" class="st25" d="M383,139.6H87.1l2.1-14.8c1.6-11.1,11.1-19.4,22.3-19.4h250.3
							c12.5,0,22.6,10.1,22.6,22.6c0,1-0.1,2.1-0.2,3.1L383,139.6z"/>
						<ellipse id="Oval-20-Copy" class="st26" cx="332.1" cy="123.1" rx="4" ry="4"/>
						<ellipse id="Oval-20-Copy-2" class="st27" cx="347.2" cy="123.1" rx="4" ry="4"/>
						<ellipse id="Oval-20-Copy-3" class="st12" cx="362.3" cy="123.1" rx="4" ry="4"/>
					</g>
					<path id="Rectangle-51" class="st28" d="M145.7,159.3h63.7c3.6,0,6.5,2.9,6.5,6.5c0,0.3,0,0.5,0,0.8l-4.8,41.3
						c-0.4,3.3-3.2,5.8-6.5,5.8h-63.7c-3.6,0-6.5-2.9-6.5-6.6c0-0.3,0-0.5,0-0.8l4.8-41.3C139.6,161.8,142.4,159.3,145.7,159.3z"/>
					<path id="Rectangle-51-Copy" class="st29" d="M273.7,146.2h117.7c3.6,0,6.5,2.9,6.5,6.5c0,0.3,0,0.6-0.1,0.9l-8.8,67.1
						c-0.4,3.3-3.2,5.7-6.5,5.7H264.9c-3.6,0-6.5-2.9-6.5-6.5c0-0.3,0-0.6,0.1-0.9l8.8-67.1C267.7,148.6,270.4,146.2,273.7,146.2z"
						/>
					<path id="Rectangle-52" class="st30" d="M136.3,281.9h54.2c3.8,0,7,3.1,7,7c0,0.4,0,0.8-0.1,1.2l0,0c-0.8,4.7-4.8,8.1-9.6,8.1
						h-54.2c-3.8,0-7-3.1-7-7c0-0.4,0-0.8,0.1-1.2l0,0C127.5,285.3,131.5,281.9,136.3,281.9z"/>
					<path id="Rectangle-52-Copy" class="st28" d="M234.4,281.9h54.2c3.8,0,7,3.1,7,7c0,0.4,0,0.8-0.1,1.2l0,0
						c-0.8,4.7-4.8,8.1-9.6,8.1h-54.2c-3.8,0-7-3.1-7-7c0-0.4,0-0.8,0.1-1.2l0,0C225.6,285.3,229.7,281.9,234.4,281.9z"/>
					<path id="Rectangle-52-Copy-2" class="st31" d="M327.2,281.9h54.2c3.8,0,7,3.1,7,7c0,0.4,0,0.8-0.1,1.2l0,0
						c-0.8,4.7-4.8,8.1-9.6,8.1h-54.2c-3.8,0-7-3.1-7-7c0-0.4,0-0.8,0.1-1.2l0,0C318.4,285.3,322.4,281.9,327.2,281.9z"/>
					<ellipse id="Oval-20" class="st30" cx="164.1" cy="252.6" rx="9.1" ry="9.1"/>
					
						<ellipse id="Oval-20-Copy-4" transform="matrix(0.1602 -0.9871 0.9871 0.1602 -29.0734 471.0403)" class="st28" cx="262.3" cy="252.6" rx="9.1" ry="9.1"/>
					<ellipse id="Oval-20-Copy-5" class="st28" cx="359" cy="252.6" rx="9.1" ry="9.1"/>
					<path id="Path-313" class="st18" d="M295.2,387.9c-8.2-51.5-31.7-75.8-70.7-73c-58.4,4.2,37.5,23.2,28.2,32.5
						c-9.4,9.3-19.9,16-14.8,25.2C241.3,378.7,260.4,383.8,295.2,387.9z"/>
					<path id="Combined-Shape_4_" class="st32" d="M276.8,337.4c7.8,10.5,13.4,24.7,17,42.6l-2.4,6.5l-12.1-1
						C272.1,360.4,271.2,344.4,276.8,337.4L276.8,337.4z"/>
					<path id="Path-315" class="st33" d="M229.7,325c31,6.6,49.1,24.9,54.3,54.9"/>
					<polyline id="Path-316" class="st33" points="259.6,360.5 278.8,360.5 278.8,345.1 					"/>
					<path id="Path-317" class="st33" d="M247.2,323.3l7.3,10.8"/>
					<path id="Path-313-Copy" class="st18" d="M295.3,387.6c-9.1-0.2-13.5-1-13.2-2.6c4.9-31.3,33.7-51.5,58.1-51.5
						c39.3,0-21.3,17.6-12,26.9c9.4,9.3,19.2,5.6,14.1,14.9C338.8,381.4,323.2,385.5,295.3,387.6z"/>
					<path id="Path-318" class="st33" d="M287,383.1c14.6-22,27.5-33.7,38.7-35"/>
					<path id="Path-319" class="st33" d="M298,369.1c16.6-1.6,27.9,0,33.9,5"/>
					<path id="Path-320" class="st34" d="M58.6,387.2h158.5"/>
					<path id="Path-320-Copy" class="st34" d="M270.5,387.2h222.9"/>
				</g>
			</g>
		</g>
	</g>
</g>
</svg>
