<?xml version="1.0" encoding="utf-8"?>
<!-- Generator: Adobe Illustrator 23.0.3, SVG Export Plug-In . SVG Version: 6.00 Build 0)  -->
<svg version="1.1" id="Layer_1" xmlns="http://www.w3.org/2000/svg" xmlns:xlink="http://www.w3.org/1999/xlink" x="0px" y="0px"
	 viewBox="0 0 553 410" style="enable-background:new 0 0 553 410;" xml:space="preserve">
<style type="text/css">
	.st0{fill-rule:evenodd;clip-rule:evenodd;fill:#F3EDF4;}
	.st1{fill-rule:evenodd;clip-rule:evenodd;fill:#D0C3EA;}
	.st2{fill:none;stroke:#E2BA14;stroke-width:1.6716;stroke-linecap:round;stroke-linejoin:round;}
	.st3{fill:none;stroke:#0B4651;stroke-width:1.6716;stroke-linecap:round;stroke-linejoin:round;}
	.st4{fill:#F7DC24;}
	.st5{fill:none;stroke:#FFFFFF;stroke-width:2.2288;stroke-linecap:round;stroke-linejoin:round;}
	.st6{fill:none;stroke:#FFFFFF;stroke-width:1.6716;stroke-linecap:round;stroke-linejoin:round;}
	.st7{fill:#0B4651;}
	.st8{fill:#FFFFFF;}
	.st9{fill:none;stroke:#FFFFFF;stroke-width:5.0148;stroke-linecap:round;stroke-linejoin:round;}
	.st10{fill:none;stroke:#AAE6A6;stroke-width:1.6716;stroke-linecap:round;stroke-linejoin:round;}
	.st11{opacity:0.1;fill:#0B4651;enable-background:new    ;}
	.st12{fill:#197AFF;}
	.st13{fill:#7712CD;}
	.st14{opacity:0.9;fill:url(#Path-254_1_);enable-background:new    ;}
	.st15{fill:#FFD7B3;}
	
		.st16{opacity:0.23;fill:none;stroke:#0B4651;stroke-width:0.8358;stroke-linecap:round;stroke-linejoin:round;enable-background:new    ;}
	.st17{fill:#5E7CBF;}
	.st18{opacity:0.4;fill:#33BAAA;enable-background:new    ;}
	.st19{opacity:0.9;fill:#FFFFFF;enable-background:new    ;}
	.st20{fill:url(#Path-258_1_);}
	.st21{fill:none;stroke:#F7DC24;stroke-width:1.6716;stroke-linecap:round;stroke-linejoin:round;}
	.st22{fill:url(#Path-240_1_);}
	.st23{fill:none;stroke:#0B4651;stroke-width:0.855;}
	.st24{fill:none;stroke:#F7DC24;stroke-width:2.786;stroke-linecap:round;stroke-linejoin:round;}
	.st25{fill:#30084F;}
	.st26{fill:url(#Path-165-Copy_1_);}
	.st27{fill:url(#Path-165_1_);}
	.st28{fill:url(#Path-162_1_);}
	.st29{fill:none;stroke:#FFFFFF;stroke-width:0.5015;stroke-linecap:round;stroke-linejoin:round;}
	.st30{fill:url(#Oval-17_1_);}
	.st31{fill:url(#Oval-17-Copy_1_);}
	.st32{fill:url(#Path-158_1_);}
	.st33{opacity:0.34;fill:#0B4651;enable-background:new    ;}
	.st34{fill:url(#Path-160-Copy_1_);}
	.st35{opacity:0.12;fill:#0B4651;enable-background:new    ;}
	.st36{opacity:0.2;fill:#0B4651;enable-background:new    ;}
	.st37{fill:none;stroke:#0B4651;stroke-width:1.1144;stroke-linecap:round;stroke-linejoin:round;}
	.st38{fill:none;stroke:#0D6574;stroke-width:1.003;}
	.st39{fill:none;stroke:#E2BA14;stroke-width:1.003;}
</style>
<path class="st0" d="M-1360.3,697c-1.5-0.8-2.4-2.1-3.6-3.2c-21.6-20.5-40.7-43.1-57.3-67.8c-40.6-60.5-58-127.1-52.9-199.7
	c4.5-64.3,27.6-122,62.6-175.3c34.8-53,79.2-96.7,129.8-134.5c38.9-29,79.8-54.4,125.3-71.7c43-16.4,87.3-25.7,133.7-22.7
	c36.5,2.3,70.5,13.1,102.9,29.5c30.9,15.7,59,35.7,85.7,57.6c65.6,53.7,137.5,97.8,211.9,138c36.5,19.7,72.6,40.1,106,64.8
	c31.8,23.5,60.5,50.1,83.2,82.9c31.2,45.1,43.5,95,38.2,149.5c-3.6,37.5-14.9,72.6-32,105.9c-1.6,3.1-3.3,4.3-6.8,4.3
	c-72.8-0.1-145.7-0.1-218.5-0.1c-7,0-14,0-21-0.1c-12.1-0.1-21.2,8-21.5,20.2c-0.3,16.3-0.3,32.7,0,49c0.2,12.2,8.9,20.3,21.4,20.3
	c41.5,0,83,0.2,124.5-0.3c10.3-0.1,16.2,5.2,22.3,12.8c-23.6,14.1-47.9,24.8-73,33.7c-26.8,9.5-54.4,16-82.1,21.9
	c-69,14.8-139,20.3-209.4,21.6c-3.5,0.1-5.3-1-6.9-4.1c-21.6-44.3-43.4-88.4-65.1-132.7c-0.9-1.8-0.9-4.1-1.1-6.2
	c-0.7-6.4-0.8-13-2.3-19.2c-1-4.1-4-7.7-6-11.6c-0.5,0.2-1,0.3-1.5,0.5c-0.3,1.9-0.6,3.8-0.8,5.7c-0.8,6.6-4.5,10.1-11.2,10.3
	c-5.3,0.1-10.7,0.1-16,0c-6.6-0.2-10.2-3.9-11.3-10.4c-0.5-2.7-1.9-5.5-3.5-7.8c-5.9-8-12.1-15.9-18.3-23.7c-1.7-2.1-4-4-6.4-5.2
	c-8.8-4.4-17.8-8.4-26.5-12.8c-3.3-1.7-5.2-1.1-7.5,1.7c-8.4,10.6-17.1,20.9-25.6,31.3c-1,1.3-2.2,2.5-3.6,4.1
	c-1.4-1.4-2.6-2.5-3.5-3.8c-10.3-13.1-20.5-26.3-30.9-39.2c-1.5-1.9-4.5-3.6-6.8-3.7c-14.2-0.3-28.3-0.2-42.5-0.2
	c-1.3,0-2.6,0.2-4.7,0.4c1.8,12.5,3.6,24.8,5.4,37.8c-27.8,0-55,0-82.9,0c0.7,2.4,1.1,3.9,1.7,5.4c6.9,17.7,19.4,29.9,36.9,37.2
	c16.4,6.8,33.7,9.1,51,11.8c30.8,4.8,61.6,9.4,92.3,14.1c4.7,0.7,5.7,2.5,3.4,6.7c-1.2,2.2-2.9,4.1-4.4,6
	c-19.4,25-38.9,50-58.1,75.1c-2.2,2.9-4.3,3.4-7.5,2.5c-58.3-16.1-113.8-38.3-163.8-73c-4.7-3.3-9.5-6.4-14-10"/>
<path class="st1" d="M-893.5,833.5c0,0-149.3,3.8-274.7-33.6L-1213,749l-41-45.5l-31-63c0,0,37-55.5,43-55.5s80-17.5,102-15.5
	S-995.5,581-989.5,585s82.5,61,82.5,61l84,83.5L-893.5,833.5z"/>
<path class="st1" d="M-426.7,650.2c0,0-49.9,79.6-112.3,113.2S-647.5,777-647.5,777l-68-9.5c0,0,1.5-51,0-54.5s4.5-66,8-67.5
	s45-25.5,56-27s77.5-7,87.5-6.5s90,0,90,0L-426.7,650.2z"/>
<path class="st0" d="M-1170.4,1713.6c-1.5-0.8-2.4-2.1-3.6-3.2c-21.6-20.4-40.7-43.1-57.3-67.8c-40.6-60.5-58-127.1-52.9-199.7
	c4.5-64.3,27.6-122,62.6-175.3c34.8-53,79.2-96.7,129.8-134.5c38.9-29,79.8-54.4,125.3-71.7c43-16.4,87.3-25.7,133.7-22.7
	c36.5,2.3,70.5,13.1,102.9,29.5c30.9,15.7,59,35.7,85.7,57.6c65.6,53.7,137.5,97.8,211.9,138c36.5,19.7,72.6,40.1,106,64.8
	c31.8,23.5,60.5,50.1,83.2,82.9c31.2,45.1,43.5,95,38.2,149.5c-3.6,37.5-14.9,72.6-32,105.9c-1.6,3.1-3.3,4.3-6.8,4.3
	c-72.8-0.1-145.7-0.1-218.5-0.1c-7,0-14,0-21-0.1c-12.1-0.1-21.2,8-21.5,20.2c-0.3,16.3-0.3,32.7,0,49c0.2,12.2,8.9,20.3,21.4,20.3
	c41.5,0,83,0.2,124.5-0.3c10.3-0.1,16.2,5.2,22.3,12.8c-23.6,14.1-47.9,24.8-73,33.7c-26.8,9.5-54.4,16-82.1,21.9
	c-69,14.8-139,20.3-209.4,21.6c-3.5,0.1-5.3-1-6.9-4.1c-21.6-44.3-43.4-88.4-65.1-132.7c-0.9-1.8-0.9-4.1-1.1-6.2
	c-0.7-6.4-0.8-13-2.3-19.2c-1-4.1-4-7.7-6-11.6c-0.5,0.2-1,0.3-1.5,0.5c-0.3,1.9-0.6,3.8-0.8,5.7c-0.8,6.6-4.5,10.1-11.2,10.3
	c-5.3,0.1-10.7,0.1-16,0c-6.6-0.2-10.2-3.9-11.3-10.4c-0.5-2.7-1.9-5.5-3.5-7.8c-5.9-8-12-15.9-18.3-23.7c-1.7-2.1-4-4-6.4-5.2
	c-8.8-4.4-17.8-8.4-26.5-12.8c-3.3-1.7-5.2-1.1-7.5,1.7c-8.4,10.6-17.1,20.9-25.6,31.3c-1,1.3-2.2,2.5-3.6,4.1
	c-1.4-1.4-2.6-2.5-3.5-3.8c-10.3-13.1-20.5-26.3-30.9-39.2c-1.5-1.9-4.5-3.6-6.8-3.7c-14.2-0.3-28.3-0.2-42.5-0.2
	c-1.3,0-2.6,0.2-4.7,0.4c1.8,12.5,3.6,24.8,5.5,37.8c-27.8,0-55,0-82.9,0c0.7,2.4,1.1,3.9,1.7,5.4c6.9,17.7,19.4,29.9,36.9,37.2
	c16.4,6.8,33.7,9.1,51,11.8c30.8,4.8,61.6,9.4,92.3,14.1c4.7,0.7,5.7,2.5,3.4,6.7c-1.2,2.2-2.9,4.1-4.4,6
	c-19.4,25-38.9,50-58.1,75.1c-2.2,2.9-4.3,3.4-7.5,2.5c-58.3-16.1-113.8-38.3-163.8-73c-4.7-3.3-9.5-6.4-14-10"/>
<path class="st1" d="M-703.5,1850c0,0-149.3,3.8-274.7-33.6l-44.8-50.9l-41-45.5l-31-63c0,0,37-55.5,43-55.5s80-17.5,102-15.5
	s144.5,11.5,150.5,15.5s82.5,61,82.5,61l84,83.5L-703.5,1850z"/>
<path class="st1" d="M-236.8,1666.7c0,0-49.9,79.6-112.3,113.2s-108.4,13.6-108.4,13.6l-68-9.5c0,0,1.5-51,0-54.5s4.5-66,8-67.5
	s45-25.5,56-27s77.5-7,87.5-6.5s90,0,90,0L-236.8,1666.7z"/>
<path class="st0" d="M486.4,323.4c-1.8,1.4-3.7,2.7-5.6,4c-19.9,13.8-42,22.7-65.2,29.1c-1.3,0.4-2.1,0.2-3-1
	c-7.7-10-15.4-20-23.2-29.9c-0.6-0.8-1.3-1.5-1.8-2.4c-0.9-1.7-0.5-2.4,1.4-2.7c12.3-1.9,24.5-3.7,36.8-5.6c6.9-1.1,13.8-2,20.3-4.7
	c7-2.9,11.9-7.7,14.7-14.8c0.2-0.6,0.4-1.2,0.7-2.2c-11.1,0-22,0-33,0c0.7-5.2,1.4-10.1,2.2-15.1c-0.9-0.1-1.4-0.1-1.9-0.1
	c-5.6,0-11.3-0.1-16.9,0.1c-0.9,0-2.1,0.7-2.7,1.5c-4.2,5.2-8.2,10.4-12.3,15.6c-0.4,0.5-0.9,0.9-1.4,1.5c-0.6-0.7-1-1.1-1.4-1.6
	c-3.4-4.1-6.9-8.3-10.2-12.5c-0.9-1.1-1.7-1.4-3-0.7c-3.5,1.8-7.1,3.3-10.6,5.1c-1,0.5-1.9,1.3-2.5,2.1c-2.5,3.1-4.9,6.2-7.3,9.4
	c-0.7,0.9-1.2,2-1.4,3.1c-0.4,2.6-1.9,4.1-4.5,4.1c-2.1,0.1-4.3,0-6.4,0c-2.7-0.1-4.2-1.4-4.5-4.1c-0.1-0.8-0.2-1.5-0.3-2.3
	c-0.2-0.1-0.4-0.1-0.6-0.2c-0.8,1.5-2,3-2.4,4.6c-0.6,2.5-0.6,5.1-0.9,7.6c-0.1,0.8-0.1,1.8-0.4,2.5c-8.6,17.6-17.3,35.2-25.9,52.9
	c-0.6,1.3-1.3,1.7-2.7,1.7c-28.1-0.5-55.9-2.7-83.4-8.6c-11.1-2.4-22-5-32.7-8.7c-10-3.5-19.7-7.8-29.1-13.4c2.4-3,4.8-5.1,8.9-5.1
	c16.5,0.2,33.1,0.1,49.6,0.1c5,0,8.4-3.2,8.5-8.1c0.1-6.5,0.1-13,0-19.5c-0.1-4.8-3.7-8.1-8.6-8c-2.8,0-5.6,0-8.4,0c-29,0-58,0-87,0
	c-1.4,0-2.1-0.5-2.7-1.7c-6.8-13.3-11.3-27.3-12.8-42.2c-2.1-21.7,2.8-41.6,15.2-59.5c9-13,20.5-23.6,33.1-33
	c13.3-9.9,27.7-18,42.3-25.8c29.7-16,58.3-33.6,84.4-55c10.6-8.7,21.8-16.7,34.1-23c12.9-6.5,26.5-10.8,41-11.8
	c18.5-1.2,36.1,2.5,53.3,9.1c18.1,6.9,34.4,17,49.9,28.6c20.2,15.1,37.9,32.5,51.7,53.6c14,21.2,23.2,44.2,25,69.8
	c2,28.9-4.9,55.4-21.1,79.6c-6.6,9.9-14.2,18.9-22.8,27c-0.5,0.4-0.8,1-1.4,1.3"/>
<path class="st1" d="M311.2,368.3c0,0,59.5,1.5,109.4-13.4l17.9-20.3l16.3-18.1l12.4-25.1c0,0-14.7-22.1-17.1-22.1
	c-2.4,0-31.9-7-40.6-6.2s-57.6,4.6-60,6.2c-2.4,1.6-32.9,24.3-32.9,24.3l-33.5,33.3L311.2,368.3z"/>
<path class="st1" d="M125.2,295.3c0,0,19.9,31.7,44.7,45.1c24.9,13.4,43.2,5.4,43.2,5.4l27.1-3.8c0,0-0.6-20.3,0-21.7
	c0.6-1.4-1.8-26.3-3.2-26.9c-1.4-0.6-17.9-10.2-22.3-10.8c-4.4-0.6-30.9-2.8-34.9-2.6c-4,0.2-35.9,0-35.9,0L125.2,295.3z"/>
<g id="Pages">
	<g id="Home---Approach-v3-" transform="translate(-218.000000, -2910.000000)">
		<g id="Section-1" transform="translate(218.000000, 2320.000000)">
			<g id="Supporting-Success" transform="translate(0.000000, 590.000000)">
				<g id="Supporting-Success-Copy">
					<path id="Path-257" class="st2" d="M103.3,87.9l-61.7,283"/>
					<path id="Path-257-Copy" class="st2" d="M78.6,101.1l22,283"/>
					<path id="Path-257-Copy-2" class="st3" d="M179.1,101.1l22,283"/>
					<polygon id="Rectangle-43" class="st4" points="53,33.2 210.4,33.2 225.8,246.6 68.4,246.6 					"/>
					<path id="Oval-18" class="st5" d="M205.6,88.3c0-14.9-12-26.9-26.9-26.9c-14.9,0-26.9,12-26.9,26.9c0,14.9,12,26.9,26.9,26.9"
						/>
					<polyline id="Path-273" class="st6" points="176.5,111.7 179.1,115.3 176.5,118.7 					"/>
					<polygon id="Path-272" class="st7" points="87.4,161 91.4,206.9 104.2,206.9 100.3,161 					"/>
					<polygon id="Path-272-Copy-3" class="st8" points="151.8,177.8 154.7,206 167.7,206 164.8,177.8 					"/>
					<polygon id="Path-272-Copy" class="st8" points="109.5,181.3 111.9,206 124.5,206 122.1,181.3 					"/>
					<polygon id="Path-272-Copy-2" class="st7" points="132.4,193.7 133.8,206 145.6,206 144.3,193.7 					"/>
					<path id="Path-271" class="st9" d="M72.4,70.7h46.5"/>
					<path id="Path-271-Copy" class="st6" d="M71.6,87.4h27.9"/>
					<path id="Path-271-Copy-4" class="st10" d="M172.1,83.9h13.8"/>
					<path id="Path-271-Copy-5" class="st10" d="M172.1,89.2h5.9"/>
					<path id="Path-271-Copy-6" class="st10" d="M172.1,95.3h20.9"/>
					<path id="Path-271-Copy-2" class="st6" d="M73.3,102.4H96"/>
					<path id="Path-271-Copy-3" class="st6" d="M76,118.3h52.9"/>
					<polygon id="Rectangle-44-Copy" class="st11" points="67.1,231.6 195.6,231.6 196.8,243 68.3,243 					"/>
					<path id="Rectangle-46" class="st8" d="M139,233.3h20.3c2.7,0,4.8,2.2,4.8,4.9l0,0c0,2.7-2.2,4.8-4.8,4.8H139
						c-2.7,0-4.8-2.2-4.8-4.8l0,0C134.2,235.5,136.3,233.3,139,233.3z"/>
					<polygon id="Rectangle-44" class="st12" points="65.4,236.9 193.8,236.9 195,248.3 66.6,248.3 					"/>
					<path id="Path-256" class="st7" d="M187.3,366.5c-8.9,2.5-13.4,4.1-13.5,5c-0.1,0.8,0,1.8,0.1,3h21.9l-0.8-7.9H187.3z"/>
					<path id="Path-256-Copy" class="st7" d="M220.7,366.5c-7,2.6-10.6,4.2-10.7,5c-0.1,0.8,0,1.8,0.1,2.9l19.3-0.2l-0.8-7.7H220.7
						L220.7,366.5z"/>
					<path id="Path-255" class="st13" d="M233.7,146.9c11.4,26.5,16.3,42.1,14.8,46.8c-1.5,4.6-4.6,9.3-9.3,14.1l-11.6-57.1
						L233.7,146.9z"/>
					
						<linearGradient id="Path-254_1_" gradientUnits="userSpaceOnUse" x1="637.8495" y1="252.3274" x2="637.7231" y2="251.2747" gradientTransform="matrix(59 0 0 -151 -37419.0313 38299)">
						<stop  offset="0" style="stop-color:#8A44FA"/>
						<stop  offset="1" style="stop-color:#1979FF"/>
					</linearGradient>
					<path id="Path-254" class="st14" d="M186.2,236v131.4l8.7,1.5c5.4-24.5,8.2-44.4,8.2-59.7c4.5-14.7,8.3-32,11.3-51.7
						c1.8,55.5,3.3,92.1,4.7,109.9c2.4,1.6,5.7,2.1,9.7,1.5l9.4-128.4L186.2,236z"/>
					<g id="Group-28" transform="translate(205.000000, 62.000000)">
						<path id="Path-252" class="st15" d="M-10.3,40c-2.5,10-3.4,15.2-2.5,15.5s1.3,1.4,1.3,3.3l4.8,12.8h6.6l-1.8,13.2h16.2
							l-3.2-22.4L-0.1,41.7L-10.3,40z"/>
						<path id="Path-251" class="st7" d="M-1,26.4c12.3,1.1,18.7,4.3,19.4,9.6c1,8,5.9,5.4,4.3,12.8C21,56.3,17.8,69.1,12,69.1
							c-5.9,0-13.5-9.9-11.4-14.7c3.5-8.2-2.2-8.3-2.7-4.2s1.3,17.6,0,21.1c-0.9,2.3-3.2,2.7-6.8,1c-3-8.9-3.7-13.8-2.1-14.8
							c2.4-1.4,6.4,2.5,6.5-1.1C-4.5,54-5,49.7-6,43.5c-8.5-1.8-10.9-5.1-7.3-9.9C-9.7,28.8-5.6,26.4-1,26.4z"/>
					</g>
					<g id="Group-31" transform="translate(129.000000, 91.000000)">
						<path id="Path-269" class="st15" d="M11,42.2c-1.7-2.9-2.6-4.5-2.5-4.9c0.1-0.5-1-10-4.8-11.6c-2.5-1.1-5.3-1.6-8.5-1.6
							c-1.7,6.7-1.7,10.9,0,12.7s4,3.1,7.1,3.8l3.4,6.1L11,42.2z"/>
						<path id="Path-270" class="st6" d="M-1.8,26.6L4,22.7"/>
					</g>
					<path id="Path-253" class="st13" d="M191.7,142.1c14.6-5.9,22.7-3.6,30.6-1.3c5.3,1.5,9,3.6,11.3,6.3l7.5,65.7l1.5,30.6
						c-9.1,2.7-18.2,4-27.2,4c-9,0-19.6-0.7-31.8-2l4.7-78.9l-19.9,16.1c-3.6,2.9-8.8,2.3-11.7-1.3c-0.3-0.4-0.6-0.7-0.8-1.1
						l-22.8-40.3c-1.6-2.8-0.7-6.3,2-7.9l0,0c2.7-1.7,6.2-0.8,7.8,1.8l19,30.5c0.4,0.7,1.3,0.9,2,0.5c0.1-0.1,0.2-0.1,0.3-0.2
						C176.9,151.2,186,143.8,191.7,142.1z"/>
					<g id="Group-27" transform="translate(19.000000, 59.000000)">
						<g id="Group-30" transform="translate(310.898928, 0.000000)">
							<path id="Rectangle-40" class="st4" d="M-26.2,26.2H98c2.2,0,3.9,1.8,3.9,3.9v86.3c0,2.2-1.8,3.9-3.9,3.9H-26.2
								c-2.2,0-3.9-1.8-3.9-3.9V30.1C-30.1,28-28.3,26.2-26.2,26.2z"/>
							<path id="Path-247" class="st16" d="M-7.7,61.5v18.9"/>
							<polyline id="Path-248" class="st16" points="-6.6,72.1 6.8,72.1 6.8,59.9 14,59.9 							"/>
							<polygon id="Rectangle-42" class="st8" points="52.7,96.3 75.1,96.3 75.1,105.8 52.7,105.8 							"/>
							<polyline id="Path-250" class="st16" points="50.5,71 50.5,91.6 84.4,91.6 84.4,63.6 							"/>
							<rect id="Rectangle-41" x="-14.4" y="40.8" class="st8" width="14.5" height="16.8"/>
							<rect id="Rectangle-41-Copy" x="-15.5" y="84.5" class="st17" width="14.5" height="16.8"/>
							<polygon id="Rectangle-41-Copy-2" class="st18" points="16.7,49.8 31.2,50.5 30.3,67.3 15.8,66.6 							"/>
							<polygon id="Rectangle-41-Copy-4" class="st12" points="43.5,49.8 58,50.5 57.2,67.3 42.6,66.6 							"/>
							<polygon id="Rectangle-41-Copy-3" class="st19" points="73.7,42.2 88,39.7 91,56.2 76.7,58.7 							"/>
							<path id="Path-249" class="st16" d="M34.3,59.1h5.2"/>
						</g>
						<linearGradient id="Path-258_1_" gradientUnits="userSpaceOnUse" x1="317.3433" y1="230.0535" x2="346.9241" y2="230.0535">
							<stop  offset="0" style="stop-color:#7712CD"/>
							<stop  offset="1" style="stop-color:#121B46"/>
						</linearGradient>
						<path id="Path-258" class="st20" d="M339.5,209.4c-13.6,3.2-26.5,18.6-20.7,31.3c3.8,8.4,9.1,12.6,15.9,12.6l7.2-46.2
							C349.3,206.5,348.5,207.2,339.5,209.4z"/>
						<path id="Path-246-Copy-2" class="st21" d="M330.6,257.5l-11.7,54.7"/>
						<path id="Path-246-Copy" class="st4" d="M383.2,252.8c-0.1-0.4,1.4-1.4,1.9-1.5c0.4-0.1,0.9,0.1,1.1,0.6l18.6,60.2
							c0.1,0.4-0.1,0.9-0.6,1.1s-0.9-0.1-1-0.6L383.2,252.8z"/>
						<polygon id="Path-243" class="st15" points="317.7,258.8 308.4,307 314.4,308 331.9,261.1 						"/>
						<path id="Path-242" class="st15" d="M344.4,261l23.1,49.1h7.1l-11.5-48.3c7.1-6.9,7.1-10.9,0-12.1
							C353,248.1,346.7,251.9,344.4,261z"/>
						<path id="Path-236" class="st7" d="M350.2,218.1c-5.9-0.1-9-0.1-9.5,0c-10.6,2.2-16.4,11-18.5,15.8
							c-2.3,5.1-4.1,13.2-5.5,24.2c7,3.1,12.1,4.9,15.2,5.3c12,1.5,24.1,0.7,36.5-2.5l-1.9-9.5c5.5-2.4,10.4-6.6,14.5-12.5
							c4.2-5.9,2.7-13.8-4.3-23.6L350.2,218.1z"/>
						<path id="Path-173" class="st7" d="M332.9,108.8c-6.8,16.5-7.6,26.5-2.4,30.1c7.3,5.1,4.9,13.4,6.3,13.5
							c1.2,0.1,17.4,0.8,17.8-5.7c0.1-1.3-5-5-15.2-10.9L332.9,108.8z"/>
						<path id="Path-178" class="st13" d="M345.5,146.2c-3.2-2.4-7.5-2-12.9,1.2c-4.7,2.8-7.5,13.5-9.2,33.2
							c-0.1,1.2-20,3.7-20.5,5.7c-0.2,0.9-0.2,3.2,0,6.9h33.3l2.5,25.7c9,2.6,17.3,3.4,25.1,2.3c7.8-1,13.2-2.1,16.4-3.2l-3.7-22.2
							l13-0.9l-9.3-29.1l-5.5-17.2l-18.6-8.1L345.5,146.2z"/>
						<path id="Path-238" class="st13" d="M366.7,249.9c2.5-1.9,3.9-4.8,4.2-8.6c0.4-5.6-0.3-21,7.8-27.3c-1.2-8.8-1.2-14.4,0-16.8
							l13.8-0.8c13.5,42,5,63.6-25.7,64.8C363.8,257.8,363.8,254.1,366.7,249.9z"/>
						
							<linearGradient id="Path-240_1_" gradientUnits="userSpaceOnUse" x1="575.0411" y1="187.0804" x2="574.5324" y2="186.1557" gradientTransform="matrix(16.2409 0 0 -19.3681 -8952.0381 3817.9224)">
							<stop  offset="0" style="stop-color:#7712CD"/>
							<stop  offset="1" style="stop-color:#121B46"/>
						</linearGradient>
						<polygon id="Path-240" class="st22" points="378,214.9 386.4,210.2 389.9,208.3 390.8,205.6 387.8,197.8 376.5,197.8 						
							"/>
						<path id="Path-234" class="st15" d="M359.9,171.8c-1.3-3-2.2-5.6-2.8-7.8c-0.6-2.6-2.7-5.3-3.4-4.1c-0.4,0.8-0.4,2.2,0,4.1
							c-6-3.3-9.6-4.7-10.6-4.1c-1.6,0.8-1,8.5,2.8,9.8c2.5,0.9,5.5,3.3,9.1,7.1c0.5-2.1,1-3.3,1.4-3.7
							C356.8,172.6,358,172.2,359.9,171.8z"/>
						<path id="Path-177" class="st15" d="M343.4,133v15.4c-0.1,6.6,1.5,9.9,4.9,9.9c3.4,0,5.9-4.2,7.4-12.6l2.3-15.8L343.4,133z"/>
						<path id="Path-166" class="st23" d="M6.9,312.2h430.5"/>
						<path id="Path-166-Copy" class="st23" d="M454.4,312.2h22.4"/>
						<path id="Path-163-Copy-4" class="st24" d="M164.3,194.4l-17.7,122.1"/>
						<path id="Path-163-Copy-5" class="st24" d="M406.7,194.4l17.7,122.1"/>
						<path id="Rectangle-29" class="st7" d="M193.8,144h59.5c1.6,0,3,1.1,3.4,2.7l8.6,38c0.4,1.9-0.7,3.7-2.6,4.1
							c-0.2,0.1-0.5,0.1-0.8,0.1h-59.5c-1.6,0-3-1.1-3.4-2.7l-8.6-38c-0.4-1.9,0.7-3.7,2.6-4.1C193.3,144,193.6,144,193.8,144z"/>
						<polygon id="Rectangle-29-Copy" class="st8" points="194.2,147 252.8,147 261.6,185.7 203,185.7 						"/>
						<path id="Path-170" class="st11" d="M223.3,144.2c10.3,13.2,19.4,19.3,27.4,18.2c7.9-1.1,13.2,3.5,15.7,13.7l-1.5,19.7h-42.5
							l-13.1-51.7L223.3,144.2L223.3,144.2L223.3,144.2z"/>
						<path id="Rectangle-28" class="st25" d="M201.4,188.8H259c0.9,0,1.7,0.8,1.7,1.7l0,0c0,0.9-0.8,1.7-1.7,1.7h-57.6
							c-0.9,0-1.7-0.8-1.7-1.7l0,0C199.7,189.6,200.5,188.8,201.4,188.8z"/>
						<path id="Path-169" class="st15" d="M213.6,141.7l-1.6-4.3c-1.7-0.3-3-1-3.9-2.2c-1.4-1.8-0.2-11.2,2.7-12
							c-2.5-3.7-2.6-6.2-1.7-7.1c0.9-0.9,9.1,12.5,11.2,24.5C221.6,148.6,219.4,149,213.6,141.7z"/>
						<path id="Rectangle-27" class="st7" d="M142.9,192.2h278.6c1.7,0,3.1,1.4,3.1,3.1l0,0c0,1.7-1.4,3.1-3.1,3.1H142.9
							c-1.7,0-3.1-1.4-3.1-3.1l0,0C139.8,193.6,141.2,192.2,142.9,192.2z"/>
						
							<linearGradient id="Path-165-Copy_1_" gradientUnits="userSpaceOnUse" x1="577.7703" y1="185.9537" x2="577.642" y2="184.8858" gradientTransform="matrix(21.9079 0 0 -14.7134 -12410.9912 3044.5583)">
							<stop  offset="0" style="stop-color:#7712CD"/>
							<stop  offset="1" style="stop-color:#121B46"/>
						</linearGradient>
						<path id="Path-165-Copy" class="st26" d="M246,312.2c0,0-12.6,7.2-11.1,10.5c0.9,1.9,6,2.7,15.4,2.4l0,0
							c2.1-0.1,3.8-1.8,3.8-3.9v-9C248.7,312.2,246,312.2,246,312.2z"/>
						<path id="Path-167" class="st7" d="M230.9,257.6l13.8,54c0.6,2.1,2.5,3.6,4.7,3.6l0,0c2.1,0,3.8-1.7,3.8-3.8v-61.1
							L230.9,257.6z"/>
						
							<linearGradient id="Path-165_1_" gradientUnits="userSpaceOnUse" x1="388.4916" y1="329.756" x2="415.563" y2="329.756" gradientTransform="matrix(1 0 0 1 -232 -9)">
							<stop  offset="0" style="stop-color:#7712CD"/>
							<stop  offset="1" style="stop-color:#121B46"/>
						</linearGradient>
						<path id="Path-165" class="st27" d="M175.5,314.4c0,0-20.1,3.8-18.9,8c0.4,1.7,4.4,4.7,14.9,4.7c2.6,0,5.6-0.3,8.9-0.8l0,0
							c1.9-0.3,3.3-2,3.3-3.9v-5.9C178.2,315.1,175.5,314.4,175.5,314.4z"/>
						<path id="Path-164" class="st7" d="M287.9,232.3l-65.8-4.1c-8.5-0.5-16.4,4.5-19.5,12.5l-28.6,73.5c-0.8,2.1,0.2,4.4,2.3,5.2
							c0.1,0,0.2,0.1,0.4,0.1l0,0c2.5,0.7,5.2-0.4,6.5-2.6l30.6-51.9c3.8-6.5,11.5-9.6,18.8-7.6l39.3,10.7L287.9,232.3z"/>
						
							<linearGradient id="Path-162_1_" gradientUnits="userSpaceOnUse" x1="578.0785" y1="190.695" x2="577.9541" y2="189.66" gradientTransform="matrix(25.2007 0 0 -40.4165 -14263.8818 7850.0654)">
							<stop  offset="0" style="stop-color:#7712CD"/>
							<stop  offset="1" style="stop-color:#121B46"/>
						</linearGradient>
						<path id="Path-162" class="st28" d="M301.4,152.8c0.4-0.4,1.3,0.4,2.9,2.5c3.8,5,11.4,23.5,6.5,29.2
							c-5.3,6.2-12.2,4.8-20.7-4.3L301.4,152.8z"/>
						<polygon id="Path-157" class="st15" points="271.8,139 271.8,153.4 285.7,151.7 282.5,134.4 						"/>
						<g id="Group-23" transform="translate(278.540060, 79.493094)">
							<path id="Path-156" class="st15" d="M-20.8,38c-2.2,12-1.1,19.9,3.3,23.5c6.6,5.5,23,1.7,27.3-1.2
								C12.7,58.3,2.5,50.9-20.8,38z"/>
							<path id="Path-154" class="st7" d="M-21.1,43.7c-5.5,2.6-6.4-5.5-2.8-5.5c-2.8-9.2,2-19.7,13.1-21
								c20.3-2.3,16.4,13,24.2,11.3c6.7-1.4,9.6,6.6,6.5,14.4c-1.3,3.3-3.8,5.5-6.5,9.9c0.9,0,2.6,2.3,1.5,4.6
								c-0.9,1.9-3,3.2-4.8,2.3c0.9,4.7-15,7-19.7-9.8C-14.9,46.2-16.6,50.9-21.1,43.7z"/>
							<path id="Path-155" class="st13" d="M-9.7,50v-6c0-6.8,4.9-12.7,11.6-13.9l8.9-1.6l-3.3-3.5L-1.6,27
								c-6.4,1.5-11.3,6.7-12.2,13.2l-0.1,1l0,0c0,2.8-1.4,5.5-3.6,7.1l-0.6,0.4L-9.7,50z"/>
							<path id="Path-155-Copy" class="st29" d="M8.8,26.6c-1.5,0.4-3.9,0.9-6.9,1.6c-7.5,1.7-13.1,8-13.9,15.8l-0.8,7.3"/>
							<linearGradient id="Oval-17_1_" gradientUnits="userSpaceOnUse" x1="-17.725" y1="51.533" x2="-8.191" y2="51.533">
								<stop  offset="0" style="stop-color:#56B450"/>
								<stop  offset="1" style="stop-color:#6608A3"/>
							</linearGradient>
							<path id="Oval-17" class="st30" d="M-13,57.4c2.6,0,4.8-2.6,4.8-5.8c0-3.2-2.1-5.8-4.8-5.8c-0.8,0-1.7,0-2.7,0
								c-1.4,2.7-2,4.6-2,5.8c0,1.5,0.7,3.5,2,5.8C-14.4,57.4-13.5,57.4-13,57.4z"/>
							
								<linearGradient id="Oval-17-Copy_1_" gradientUnits="userSpaceOnUse" x1="-263.1254" y1="103.6428" x2="-263.2511" y2="102.5963" gradientTransform="matrix(10.8125 0 0 -13.2263 2830.467 1413.264)">
								<stop  offset="0" style="stop-color:#7712CD"/>
								<stop  offset="1" style="stop-color:#121B46"/>
							</linearGradient>
							<ellipse id="Oval-17-Copy" class="st31" cx="-15.5" cy="51.5" rx="4.8" ry="5.8"/>
							<ellipse id="Oval-17-Copy-2" class="st8" cx="-15.5" cy="51.5" rx="1.8" ry="2.3"/>
						</g>
						
							<linearGradient id="Path-158_1_" gradientUnits="userSpaceOnUse" x1="493.7643" y1="248.761" x2="493.7643" y2="145.88" gradientTransform="matrix(1 0 0 1 -232 -9)">
							<stop  offset="0" style="stop-color:#7712CD"/>
							<stop  offset="1" style="stop-color:#121B46"/>
						</linearGradient>
						<path id="Path-158" class="st32" d="M272.5,150.8c5.1,2.2,9.2,2.2,12.4,0c3.2-2.2,8.7-1.5,16.5,1.8l9.7,79l-45.9,8.1
							c-8.8-2.1-13.2-4.3-13.3-6.5c-0.3-5.1,1.3-9.6,4.6-13.5c3.2-5,4-19.1,2.5-42.4l-24,4.5c-6.6,1.2-13-2.8-14.7-9.2l-7.6-27.9
							c-0.7-2.7,0.3-5.5,2.6-7.1l0,0c1.8-1.3,4.2-0.8,5.5,0.9c0.1,0.2,0.2,0.4,0.3,0.6l10.2,21.1c1.9,3.9,6.6,5.5,10.5,3.6
							c0.3-0.1,0.6-0.3,0.8-0.5l9.1-5.9c5.9-3.8,12.6-6.1,19.6-6.5L272.5,150.8z"/>
						<path id="Path-160" class="st33" d="M268.4,151.1c-0.8,11.4,1.8,17.9,8,19.4c9.2,2.3,5.6,14.8,16.2,13.1
							c10.6-1.8,6.6-29.8,0.6-32.5c-3.2,0-5.4-0.3-6.7-0.9l-3.8,2.5l-7.9,0.8l-3.4-1.4L268.4,151.1z"/>
						
							<linearGradient id="Path-160-Copy_1_" gradientUnits="userSpaceOnUse" x1="579.7319" y1="189.129" x2="579.7319" y2="190.2142" gradientTransform="matrix(40.1872 0 0 -38.4005 -23014.0469 7453.7109)">
							<stop  offset="0" style="stop-color:#8A44FA"/>
							<stop  offset="1" style="stop-color:#5C14A9"/>
						</linearGradient>
						<path id="Path-160-Copy" class="st34" d="M266,151.9c2.2,0.7,2.7,15.8,11.9,18.1c9.2,2.3,8.2,13.3,17.3,11.3s8.6-29-4.4-33
							c-3.2-1-5.2-0.7-6,0.8l-1.1,2.5l-7.8,0.8l-2.8-2.4c-1.1-0.6-2.2-0.9-3.2-0.9C268.3,149.1,266.7,149.9,266,151.9z"/>
						<path id="Path-159" class="st7" d="M270.9,149.1c3,2.4,5.4,4.8,7,7.3c4.2,7.6,16.4,8.6,17.9,2.2c1-4.2-0.3-7.2-3.8-9
							c-3.1-1.2-5-1.7-5.9-1.5c-0.6,0.1-1.2,1.2-1.5,1.5c-1.6,1.7-7.9,1.6-10,0.8C273.3,150,272,149.5,270.9,149.1z"/>
						<g id="Group-8" transform="translate(249.353630, 203.502320)">
							<path id="Path-163-Copy-2" class="st4" d="M58.7,61.3c0,0,0.1,0,0.1,0c1-0.3,2.1,0.3,2.4,1.3l19.2,65.8
								c0.2,0.6-0.2,1.2-0.8,1.4c-0.6,0.2-1.2-0.1-1.4-0.7L57.4,64C57,62.9,57.6,61.7,58.7,61.3z"/>
							<path id="Path-163-Copy" class="st21" d="M2.7,61l-25.5,60.6"/>
							<path id="Path-163-Copy-3" class="st21" d="M37,60.1l1.7,58.8"/>
							<path id="Path-161" class="st13" d="M23.7,30.6c10.1-6.2,5.7-26.9,29.2-28c20.9,0,24.2,28,18.6,42.3
								C66,56.4,60.4,72.3,32,72.3c-18.3,0-35.5-5.2-51.4-15.6c0-10,3.2-16.2,9.6-18.8C-0.3,34.1,13.6,36.8,23.7,30.6z"/>
							<path id="Path-168" class="st35" d="M29.3,61c-2.4,4.7-4.8,8.4-7,11c2.8,0.6,5.3,0.6,7.6,0L29.3,61z"/>
							<path id="Path-161-Copy" class="st3" d="M10.1,34.9c4.9-0.8,9.8-2,13.6-4.4c10.1-6.2,5.7-26.9,29.2-28c1.7-0.1,3.2,0,4.7,0.3
								"/>
							<path id="Path-163" class="st4" d="M31.2,60.2L31.2,60.2c1.1,0.2,1.9,1.2,1.8,2.4l-8.1,67.8c-0.1,0.6-0.6,1.1-1.2,1l0,0l0,0
								c-0.6-0.1-1.1-0.6-1-1.2l6.3-68.2c0.1-1.1,1-1.8,2.1-1.7C31.1,60.2,31.1,60.2,31.2,60.2z"/>
						</g>
						<g id="Group-24" transform="translate(370.540763, 101.751160)">
							<path id="Path-171" class="st36" d="M-36.7,15.7c0,16,3.4,24,10.1,24c10,0,15.3-10.1,15.4-18.9C-11.1,15-19.6,13.3-36.7,15.7
								z"/>
							<path id="Path-171-Copy" class="st15" d="M-36.7,15.7c-1,15.8,1.8,23.7,8.5,23.7c10,0,14-10,14.1-18.8
								C-14,14.8-21.5,13.2-36.7,15.7z"/>
						</g>
						<path id="Path-172" class="st7" d="M332.1,119.3c2.6,1.5,5.7,2.3,9.1,2.3c5.1,0,7.6-2.3,9.8-3.3c5.8,1-1.1,12.4,3.1,15.2
							c4.2,2.8,0.2,10.7,1.4,12.5c15.1-7,23,16.4,24.9,20c1.7,0.9,15.5-18.1-7.9-33.5c-2.8-1.9,2.5-7.9-1-14.2
							c-3.8-6.8-8.7-4.1-12-9c-4.5-6.8-10.9-13.7-22.5-8.6C327.2,105.1,325.6,111.3,332.1,119.3z"/>
						<path id="Path-179" class="st37" d="M335.8,193.8l-0.6-25.3"/>
						<path id="Path-233" class="st37" d="M376.1,186.7l-14.3-13.6c-1.4-1.4-3.7-1.3-5.1,0.1c-0.1,0.1-0.2,0.2-0.3,0.3l0,0
							c-1.4,1.9-1.5,4.6-0.1,6.5l9.4,13.7"/>
						<path id="Path-235" class="st37" d="M368.3,165.5l3.2,16.7"/>
						<path id="Path-237" class="st37" d="M6.7,26.2"/>
						<path id="Path-239" class="st3" d="M387.6,198.4c3.8,5.9,3.8,9.7,0,11.4c-5.7,2.5-18.2,6.7-17.1,22.4
							c0.7,10.5-1.6,17.2-6.9,19.9"/>
						<path id="Path-241" class="st3" d="M6.7,26.2"/>
						<path id="Path-244" class="st7" d="M309,305.4l-19.1,4.5c-0.6,1.4-0.1,2.3,1.7,2.6c1.7,0.3,9.2,0.5,22.5,0.5l0.7-6.5
							L309,305.4z"/>
						<path id="Path-245" class="st7" d="M364.8,305.2c-4.2,1.3-6.2,3.7-5.8,7.1c5,0.7,10.4,0.7,16.3,0l-1.9-7.1H364.8z"/>
						<path id="Path-246" class="st4" d="M371,257.3L371,257.3c0.8,0.1,1.3,0.8,1.2,1.6c0,0,0,0,0,0l-6.8,52.6
							c-0.1,0.5-0.5,0.8-0.9,0.7l0,0c-0.5-0.1-0.8-0.5-0.7-0.9l5.7-52.8C369.5,257.8,370.2,257.2,371,257.3
							C371,257.3,371,257.3,371,257.3z"/>
					</g>
					<g id="Group-29" transform="translate(0.000000, 224.000000)">
						<path id="Path-261" class="st7" d="M74.3,74.3c0.8-25-3.2-42.3-11.9-52c-4.3,1.9-8.1,21.3-2.7,26c3.6,3.1,5.6,12.6,6,28.3
							L74.3,74.3z"/>
						<path id="Path-268" class="st38" d="M64.5,35.3c3.2,16.8,4.4,27,3.7,30.8"/>
						<path id="Path-260" class="st4" d="M66.8,67.1c8.5-23.3,20.5-35,36-35.2c0.8,16.2-3,21.3-15.1,24.5c-12,3.2,5.3,7.2,0,13.5
							c-3.5,4.3-9.3,9.8-17.2,16.8l-6-9.9L66.8,67.1z"/>
						<path id="Path-266" class="st39" d="M70.1,81.8c3-24.4,10.6-39.2,22.8-44.3"/>
						<path id="Path-259" class="st4" d="M64.1,81.9c0-3.8-32.5-13-30.2-24.1c2.4-11.1,1.6-23.6-16.8-15.4
							c-18.4,8.2,1.5-27.7-6.3-35.2c24.3,1.1,62.8,28.5,58,74.7C64.1,84.4,64.1,85.6,64.1,81.9z"/>
						<path id="Path-262" class="st39" d="M15.8,10.6C47,31.9,63.1,57.6,64,87.7"/>
						<rect id="Rectangle-45" x="57.1" y="79.5" class="st13" width="27.4" height="78.9"/>
						<path id="Combined-Shape" class="st8" d="M57.1,88.2h27.4v1.3H57.1V88.2z M57.1,92.3h27.4v1.3H57.1V92.3z"/>
						<path id="Combined-Shape-Copy-4" class="st8" d="M57.1,141.5h27.4v1.3H57.1V141.5z M57.1,145.5h27.4v1.3H57.1V145.5z"/>
						<rect id="Rectangle-45-Copy-3" x="74.5" y="79.5" class="st36" width="10" height="78.9"/>
						<path id="Path-263" class="st39" d="M40.6,57.7c8.6-0.7,14.9,0.8,18.7,4.5c-1.1-2.7-0.4-6.8,2.2-12.6"/>
						<path id="Path-264" class="st39" d="M23.2,27.3c9.2,0.7,15.4,2.5,18.6,5.5"/>
						<path id="Path-265" class="st39" d="M46.2,38.2C46,31.5,46.4,28,47.5,27.4"/>
						<path id="Path-267" class="st39" d="M78,53.1c6.1-3.5,10.8-4.3,14.3-2.6"/>
					</g>
				</g>
			</g>
		</g>
	</g>
</g>
</svg>
