<?xml version="1.0" encoding="utf-8"?>
<!-- Generator: Adobe Illustrator 16.0.0, SVG Export Plug-In . SVG Version: 6.00 Build 0)  -->
<!DOCTYPE svg PUBLIC "-//W3C//DTD SVG 1.1//EN" "http://www.w3.org/Graphics/SVG/1.1/DTD/svg11.dtd">
<svg version="1.1" id="Layer_1" xmlns="http://www.w3.org/2000/svg" xmlns:xlink="http://www.w3.org/1999/xlink" x="0px" y="0px"
	 width="512px" height="512px" viewBox="0 0 496 496" enable-background="new 0 0 496 496" xml:space="preserve">
<path fill="#FFFFFF" d="M352.504,256c4.754,0,9.352,1.391,13.313,4.031l55.871,37.25c6.602,4.391,14.273,6.719,22.191,6.719H496v-16
	h-52.113c-4.75,0-9.359-1.391-13.32-4.031L408,268.922V0H104v48H0v448h304v-48h104v-67.305c0.504-0.121,1.023-0.16,1.527-0.281
	l37.215-9.301C455,369.047,463.496,368,472,368h24v-16h-24c-9.809,0-19.617,1.207-29.137,3.586l-37.215,9.301
	c-19.129,4.777-39.488,4-58.176-2.23l-13.48-4.496C321.719,354.07,308.938,352,296,352h-69.809c0-13.23,10.77-24,24-24h88
	c13.234,0,24-10.77,24-24c0-12.273-9.297-22.305-21.191-23.719L347.566,256H352.504z M342.398,377.832
	c12.273,4.098,25.059,6.168,37.992,6.168c3.883,0,7.754-0.336,11.609-0.711V432h-88v-26.168c2.809-3.238,4.984-7.07,6.152-11.406
	l6.551-24.266c4.121,0.84,8.207,1.84,12.219,3.184L342.398,377.832z M300.672,368.184l-5.961,22.063
	c-1.551,5.746-6.789,9.754-12.734,9.754h-2.594c-7.27,0-13.184-5.91-13.184-13.184c0-1.168,0.152-2.32,0.457-3.441L270.809,368H296
	C297.559,368,299.113,368.121,300.672,368.184z M254.23,368l-3.023,11.191c-0.672,2.48-1.008,5.039-1.008,7.625
	c0,10.816,5.984,20.168,14.746,25.207l-2.512,10.031l15.52,3.883l2.488-9.938h1.535c2.063,0,4.063-0.289,6.023-0.703V480H16V64h104
	V16h272v242.258l-17.305-11.539c-6.598-4.391-14.27-6.719-22.191-6.719h-0.617l33.297-123.191c0.672-2.48,1.008-5.039,1.008-7.625
	C386.191,93.09,373.098,80,357.008,80h-2.594c-13.156,0-24.742,8.871-28.176,21.574L304,183.863V48H136v16h152v176h-16.551
	c-8.707,0-16.906,2.887-23.762,8H168v16h62.879l-16,16H168v16h30.887l-13.367,13.367c-4.719,4.711-7.32,10.984-7.32,17.664
	c0,13.77,11.199,24.969,24.977,24.969c2.465,0,4.84-0.473,7.145-1.16c-0.008,0.391-0.121,0.762-0.121,1.16c0,8.824,7.176,16,16,16
	H254.23z M315.855,312h-29.91l33.781-124.992l27.441,9.145L315.855,312z M254.48,263.023c4.473-4.465,10.656-7.023,16.969-7.023
	h13.055l-6.527,24.145c-10.121,0.367-19.609,4.367-26.809,11.566l-41.656,41.656c-1.672,1.672-3.984,2.633-6.344,2.633
	c-4.953,0-8.977-4.023-8.977-8.969c0-2.398,0.938-4.648,2.633-6.344L254.48,263.023z M262.48,303.023
	c3.023-3.023,6.871-5.086,10.977-6.16L269.367,312h-15.855L262.48,303.023z M369.734,112.633l-9.797,36.246l-27.441-9.145
	l9.184-33.98c1.559-5.746,6.793-9.754,12.734-9.754h2.594c7.273,0,13.184,5.91,13.184,13.184
	C370.191,110.352,370.039,111.504,369.734,112.633z M328.32,155.207l27.441,9.145l-4.418,16.328l-27.441-9.145L328.32,155.207z
	 M338.191,296c4.41,0,8,3.594,8,8s-3.59,8-8,8h-5.766l4.328-16H338.191z"/>
<path fill="#FFFFFF" d="M128,256h-16v32H48v-64h48v-16H32v96h96V256z"/>
<path fill="#FFFFFF" d="M154.344,178.344L80,252.688l-10.344-10.344l-11.313,11.313L80,275.313l85.656-85.656L154.344,178.344z"/>
<path fill="#FFFFFF" d="M112,424H48v-64h48v-16H32v96h96v-48h-16V424z"/>
<path fill="#FFFFFF" d="M69.656,378.344l-11.313,11.313L80,411.313l85.656-85.656l-11.313-11.313L80,388.688L69.656,378.344z"/>
<path fill="#FFFFFF" d="M40,94h202v16H40V94z"/>
<path fill="#FFFFFF" d="M40,129.5h202v16H40V129.5z"/>
</svg>
