<?xml version="1.0" encoding="utf-8"?>
<!-- Generator: Adobe Illustrator 16.0.0, SVG Export Plug-In . SVG Version: 6.00 Build 0)  -->
<!DOCTYPE svg PUBLIC "-//W3C//DTD SVG 1.1//EN" "http://www.w3.org/Graphics/SVG/1.1/DTD/svg11.dtd">
<svg version="1.1" id="Layer_1" xmlns="http://www.w3.org/2000/svg" xmlns:xlink="http://www.w3.org/1999/xlink" x="0px" y="0px"
	 width="512px" height="512px" viewBox="0 0 512 512" enable-background="new 0 0 512 512" xml:space="preserve">
<g id="Outline">
	<g>
		<path fill="#FFFFFF" d="M464,320c4.418,0,8-3.582,8-8V136c-0.026-22.081-17.92-39.974-40-40h-8.408
			C419.421,50.722,381.47,16.06,336,16h-16c-26.193-0.038-51.014,11.714-67.584,32H232c-4.418,0-8,3.582-8,8v24
			c-0.003,14.334,6.41,27.917,17.48,37.024c-5.949,4.499-9.456,11.518-9.48,18.976v16c0,13.255,10.745,24,24,24h8
			c0.01,18.396,7.959,35.892,21.809,48H272c-22.081,0.026-39.974,17.919-40,40v64c0,4.418,3.582,8,8,8s8-3.582,8-8v-64
			c0-13.255,10.745-24,24-24h24c0,17.674,14.326,32,32,32s32-14.326,32-32h24c13.255,0,24,10.745,24,24v88h-24v-48
			c0-4.418-3.582-8-8-8s-8,3.582-8,8v48h-80v-48c0-4.418-3.582-8-8-8s-8,3.582-8,8v48H104c-4.418,0-8,3.582-8,8s3.582,8,8,8h304v16
			H80c-13.255,0-24-10.745-24-24V176h128v96H80c-4.418,0-8,3.582-8,8s3.582,8,8,8h112c4.418,0,8-3.582,8-8V168c0-4.418-3.582-8-8-8
			H56v-24c0-13.255,10.745-24,24-24c4.418,0,8-3.582,8-8s-3.582-8-8-8c-22.081,0.026-39.974,17.919-40,40v224
			c0.026,22.08,17.919,39.974,40,40h91.056l-24,48H104c-13.255,0-24,10.745-24,24v16c0,4.418,3.582,8,8,8h336c4.418,0,8-3.582,8-8
			v-16c0-13.255-10.745-24-24-24h-43.057l-24-48H432c22.08-0.026,39.974-17.92,40-40v-16c0-4.418-3.582-8-8-8s-8,3.582-8,8v16
			c0,13.255-10.745,24-24,24h-8V264c-0.026-22.081-17.92-39.974-40-40h-13.809c4.161-3.636,7.837-7.793,10.937-12.368l1.328,0.216
			c17.433,2.903,33.919-8.876,36.821-26.309c0.041-0.246,0.079-0.492,0.114-0.739l3.896-27.256c0.28-1.184,0.712-5.24,0.712-5.6V112
			h8c13.255,0,24,10.745,24,24v176C456,316.418,459.582,320,464,320z M416,472v8H96v-8c0-4.418,3.582-8,8-8h304
			C412.418,464,416,467.582,416,472z M347.057,448H164.944l24-48h134.113L347.057,448z M400,160h-8v-32h8c4.418,0,8,3.582,8,8v15.44
			l-0.272,1.904C407.123,157.152,403.855,159.966,400,160z M320,32h16c39.746,0.044,71.956,32.254,72,72v9.472
			c-2.563-0.948-5.269-1.446-8-1.472h-8V96c-0.026-26.499-21.502-47.974-48-48h-69.111C287.627,37.617,303.566,31.963,320,32z
			 M240,64h104c17.674,0,32,14.327,32,32v16H272c-17.673,0-32-14.327-32-32V64z M256,160c-4.418,0-8-3.582-8-8v-16
			c0-4.418,3.582-8,8-8h8v32H256z M328,256c-8.836,0-16-7.164-16-16v-2.104c10.482,2.805,21.518,2.805,32,0V240
			C344,248.836,336.836,256,328,256z M328,224c-26.498-0.026-47.974-21.501-48-48v-48h96v48c-0.004,6.16-1.199,12.262-3.52,17.968
			l-11.201-1.856c-4.373-0.624-8.426,2.416-9.049,6.79c-0.604,4.226,2.218,8.181,6.41,8.987l4.424,0.736
			C354.027,218.409,341.319,223.982,328,224z M397.168,193.2c-2.477,1.816-5.43,2.87-8.496,3.032
			c2.195-6.52,3.318-13.353,3.328-20.232h8c1.528-0.009,3.053-0.161,4.552-0.456l-1,7
			C402.957,186.815,400.653,190.661,397.168,193.2z"/>
		<path fill="#FFFFFF" d="M96,256c1.241,0.001,2.465-0.287,3.576-0.84l48-24c3.954-1.971,5.562-6.774,3.591-10.729
			c-0.775-1.556-2.036-2.816-3.591-3.592l-48-24c-3.953-1.975-8.757-0.372-10.732,3.581C88.288,197.532,88,198.757,88,200v48
			C88,252.418,91.582,256,96,256z M104,212.944L126.112,224L104,235.056V212.944z"/>
		<circle fill="#FFFFFF" cx="296" cy="152" r="8"/>
		<circle fill="#FFFFFF" cx="344" cy="152" r="8"/>
		<path fill="#FFFFFF" d="M322.048,168h-4.096c-6.284-0.982-12.693,0.683-17.704,4.6c-2.916,3.059-4.452,7.179-4.248,11.4
			c0,12.744,9.6,32,24,32s24-19.256,24-32c0.206-4.224-1.33-8.348-4.248-11.408C334.731,168.695,328.33,167.035,322.048,168z
			 M320,200c-2.568-0.344-7.952-9.312-8-15.856c1.938-0.16,3.881-0.208,5.824-0.144h4.352c1.943-0.062,3.887-0.011,5.824,0.152
			C327.928,190.688,322.544,199.656,320,200z"/>
	</g>
</g>
</svg>
