<svg version="1.1" id="Layer_1" xmlns="http://www.w3.org/2000/svg" xmlns:xlink="http://www.w3.org/1999/xlink" x="0px" y="0px" width="22px" height="22px" viewBox="195.5 232.5 123 122" enable-background="new 195.5 232.5 123 122" xml:space="preserve">
                                <path opacity="0.6" fill="#390c71" d="M250.667,335.666c0,2.945,2.385,5.334,5.334,5.334s5.333-2.389,5.333-5.334&#10;                        c0-20.586,16.752-37.332,37.333-37.332c2.949,0,5.334-2.391,5.334-5.334s-2.385-5.334-5.334-5.334&#10;                        c-20.581,0-37.333-16.746-37.333-37.333c0-2.944-2.384-5.333-5.333-5.333s-5.334,2.389-5.334,5.333&#10;                        c0,20.586-16.752,37.333-37.333,37.333c-2.949,0-5.334,2.391-5.334,5.334s2.385,5.334,5.334,5.334&#10;                        C233.915,298.334,250.667,315.08,250.667,335.666z M256.001,272.313c4.576,8.854,11.834,16.111,20.688,20.688&#10;                        c-8.854,4.576-16.111,11.834-20.688,20.688c-4.576-8.854-11.835-16.111-20.688-20.688&#10;                        C244.166,288.424,251.425,281.166,256.001,272.313z"/>
                            </svg>