<?xml version="1.0" encoding="utf-8"?>
<!-- Generator: Adobe Illustrator 16.0.0, SVG Export Plug-In . SVG Version: 6.00 Build 0)  -->
<!DOCTYPE svg PUBLIC "-//W3C//DTD SVG 1.1//EN" "http://www.w3.org/Graphics/SVG/1.1/DTD/svg11.dtd">
<svg version="1.1" id="Layer_1" xmlns="http://www.w3.org/2000/svg" xmlns:xlink="http://www.w3.org/1999/xlink" x="0px" y="0px"
	 width="512px" height="512px" viewBox="0 0 512 512" enable-background="new 0 0 512 512" xml:space="preserve">
<path fill="#FFFFFF" d="M136.398,40.117h16.047V55.16h-16.047V40.117z"/>
<path fill="#FFFFFF" d="M168.492,40.117h16.047V55.16h-16.047V40.117z"/>
<path fill="#FFFFFF" d="M200.586,40.117h16.047V55.16h-16.047V40.117z"/>
<path fill="#FFFFFF" d="M111.324,392.148H243.82l23.57-23.57l-23.57-23.566H111.324V15.043h193.57v88.258h95.277v-19.16L316.031,0
	H96.281v345.012H0v47.137h47.137v-32.094H237.59l8.523,8.523l-8.523,8.527H64.188v15.043h32.094v40.117h192.566v-15.043H111.324
	V392.148z M319.938,25.18l63.078,63.078h-63.078V25.18z M32.094,377.105H15.043v-17.051h17.051V377.105z"/>
<path fill="#FFFFFF" d="M200.586,120.352h160.473v15.047H200.586V120.352z"/>
<path fill="#FFFFFF" d="M200.586,80.234h88.262v15.043h-88.262V80.234z"/>
<path fill="#FFFFFF" d="M136.398,80.234h48.141v15.043h-48.141V80.234z"/>
<path fill="#FFFFFF" d="M200.586,152.445h88.262v15.047h-88.262V152.445z"/>
<path fill="#FFFFFF" d="M183.539,120.352h-47.141v47.141h47.141V120.352z M168.492,152.445h-17.047v-17.047h17.047V152.445z"/>
<path fill="#FFFFFF" d="M200.586,192.563h160.473v15.047H200.586V192.563z"/>
<path fill="#FFFFFF" d="M200.586,224.656h88.262v15.047h-88.262V224.656z"/>
<path fill="#FFFFFF" d="M183.539,192.563h-47.141v47.141h47.141V192.563z M168.492,224.656h-17.047v-17.047h17.047V224.656z"/>
<path fill="#FFFFFF" d="M200.586,264.777h160.473v15.043H200.586V264.777z"/>
<path fill="#FFFFFF" d="M200.586,296.871h88.262v15.043h-88.262V296.871z"/>
<path fill="#FFFFFF" d="M136.398,311.914h47.141v-47.137h-47.141V311.914z M151.445,279.82h17.047v17.051h-17.047V279.82z"/>
<path fill="#FFFFFF" d="M393.152,368.578c-30.695,0-55.664,24.973-55.664,55.664c0,30.695,24.969,55.664,55.664,55.664
	c30.691,0,55.664-24.969,55.664-55.664C448.816,393.551,423.844,368.578,393.152,368.578z M393.152,464.863
	c-22.398,0-40.621-18.223-40.621-40.621s18.223-40.617,40.621-40.617s40.617,18.219,40.617,40.617S415.551,464.863,393.152,464.863z
	"/>
<path fill="#FFFFFF" d="M400.172,336.813V119.352h-15.043v217.461c-44.129,3.828-79.984,41.574-79.984,87.43
	c0,48.391,39.492,87.758,87.883,87.758s87.57-39.367,87.57-87.758C480.598,378.387,445.305,340.641,400.172,336.813z
	 M393.152,496.957c-40.094,0-72.715-32.621-72.715-72.715s32.621-72.711,72.715-72.711s72.711,32.617,72.711,72.711
	S433.246,496.957,393.152,496.957z"/>
<path fill="#FFFFFF" d="M385.129,421.129l-13.594,13.84l10.512,10.641l18.125-18.25v-27.188h-15.043V421.129z"/>
</svg>
