<?xml version="1.0" encoding="utf-8"?>
<!-- Generator: Adobe Illustrator 23.0.3, SVG Export Plug-In . SVG Version: 6.00 Build 0)  -->
<svg version="1.1" id="Layer_1" xmlns="http://www.w3.org/2000/svg" xmlns:xlink="http://www.w3.org/1999/xlink" x="0px" y="0px"
	 viewBox="0 0 430 253.4" style="enable-background:new 0 0 430 253.4;" xml:space="preserve">
<style type="text/css">
	.st0{fill:#7712CD;}
	.st1{fill:url(#SVGID_1_);}
	.st2{opacity:0.8;fill:none;stroke:#7712CD;stroke-width:0.1;stroke-miterlimit:10;enable-background:new    ;}
	.st3{opacity:0.7;fill:none;stroke:#7712CD;stroke-width:0.1;stroke-miterlimit:10;enable-background:new    ;}
	.st4{opacity:0.4;fill:none;stroke:#7712CD;stroke-width:0.1;stroke-miterlimit:10;enable-background:new    ;}
	.st5{opacity:0.2;fill:none;stroke:#7712CD;stroke-width:0.1;stroke-miterlimit:10;enable-background:new    ;}
	.st6{opacity:0.1;fill:none;stroke:#7712CD;stroke-width:0.1;stroke-miterlimit:10;enable-background:new    ;}
</style>
<path class="st0" d="M215.3,237c0,0-74.9,14.7-149,6.7c0,0-61.4-8.2-67.1-11.8v16C-0.8,247.9,100.1,271.4,215.3,237z"/>
<linearGradient id="SVGID_1_" gradientUnits="userSpaceOnUse" x1="215.3185" y1="244.6896" x2="215.3185" y2="7.0947" gradientTransform="matrix(1 0 0 -1 0 254)">
	<stop  offset="0" style="stop-color:#7712CD"/>
	<stop  offset="1" style="stop-color:#121B46"/>
</linearGradient>
<path class="st1" d="M-0.8,32.8c0,0,87.7-28.8,205-10.3c0,0,104.3,29.7,227.1-13.2v233c0,0-103.1-30.2-216.1-3.8
	c0,0-107.5,22-216.1-5.1C-0.8,233.4-0.8,32.8-0.8,32.8z"/>
<path class="st2" d="M431.2,5.3c0,0-46.6,18-94.3,21.4c0,0-40.7,3.8-59.3,1.4c0,0-38.2-2.2-52.4-5.9c0,0-50.8-11.3-92.6-10.3
	c0,0-73.6-2.8-133.6,17"/>
<path class="st3" d="M430.3,1.5c0,0-46.6,18-94.3,21.4c0,0-40.7,3.8-59.3,1.4c0,0-38.2-2.2-52.4-5.9c0,0-50.8-11.3-92.6-10.3
	c0,0-73.6-2.8-133.6,17"/>
<path class="st4" d="M430.3-2.2c0,0-46.6,18-94.3,21.4c0,0-40.7,3.8-59.3,1.4c0,0-38.2-2.2-52.4-5.9c0,0-50.8-11.3-92.6-10.3
	c0,0-73.6-2.8-133.6,17"/>
<path class="st5" d="M429.5-6.4c0,0-46.6,18-94.3,21.4c0,0-40.7,3.8-59.3,1.4c0,0-38.2-2.2-52.4-5.9c0,0-50.8-11.3-92.6-10.3
	c0,0-73.6-2.8-133.6,17"/>
<path class="st6" d="M429.5-10.3c0,0-46.6,18-94.3,21.4c0,0-40.7,3.8-59.3,1.4c0,0-38.2-2.2-52.4-5.9c0,0-50.8-11.3-92.6-10.3
	c0,0-73.6-2.8-133.6,17"/>
</svg>
