<?xml version="1.0" encoding="utf-8"?>
<!-- Generator: Adobe Illustrator 23.0.3, SVG Export Plug-In . SVG Version: 6.00 Build 0)  -->
<svg version="1.1" id="Layer_1" xmlns="http://www.w3.org/2000/svg" xmlns:xlink="http://www.w3.org/1999/xlink" x="0px" y="0px"
	 viewBox="0 0 767 559" style="enable-background:new 0 0 767 559;" xml:space="preserve">
<style type="text/css">
	.st0{fill:#F3EDF4;}
</style>
<path class="st0" d="M137.6,438.3c-0.9-0.5-1.4-1.2-2.1-1.9c-12.5-11.8-23.4-24.8-33-39c-23.3-34.8-33.4-73.2-30.4-114.9
	c2.6-37,15.9-70.2,36-100.9c20-30.5,45.6-55.7,74.7-77.4c22.4-16.7,45.9-31.3,72.1-41.3c24.8-9.4,50.2-14.8,76.9-13.1
	c21,1.3,40.6,7.6,59.2,17c17.8,9,33.9,20.6,49.3,33.2c37.8,30.9,79.1,56.3,122,79.4c21,11.3,41.8,23.1,61,37.3
	c18.3,13.6,34.8,28.9,47.9,47.7c18,26,25,54.7,22,86c-2.1,21.6-8.5,41.8-18.4,60.9c-0.9,1.8-1.9,2.5-3.9,2.5
	c-41.9-0.1-83.8,0-125.8,0c-4,0-8,0-12.1,0c-7-0.1-12.2,4.6-12.4,11.6c-0.2,9.4-0.2,18.8,0,28.2c0.1,7,5.1,11.7,12.3,11.7
	c23.9,0,47.8,0.1,71.6-0.2c5.9-0.1,9.3,3,12.8,7.3c-13.6,8.1-27.6,14.3-42,19.4c-15.4,5.5-31.3,9.2-47.3,12.6
	c-39.7,8.5-80,11.7-120.5,12.4c-2,0-3.1-0.6-4-2.4c-12.4-25.5-25-50.9-37.4-76.4c-0.5-1.1-0.5-2.4-0.6-3.6
	c-0.4-3.7-0.5-7.5-1.3-11.1c-0.6-2.4-2.3-4.5-3.5-6.7c-0.3,0.1-0.6,0.2-0.9,0.3c-0.2,1.1-0.4,2.2-0.5,3.3c-0.5,3.8-2.6,5.8-6.5,5.9
	c-3.1,0.1-6.1,0.1-9.2,0c-3.8-0.1-5.9-2.3-6.5-6c-0.3-1.6-1.1-3.2-2-4.5c-3.4-4.6-6.9-9.2-10.5-13.7c-1-1.2-2.3-2.3-3.7-3
	c-5-2.5-10.2-4.8-15.3-7.4c-1.9-1-3-0.6-4.3,1c-4.8,6.1-9.8,12-14.8,18c-0.6,0.7-1.3,1.4-2.1,2.4c-0.8-0.8-1.5-1.4-2-2.2
	c-5.9-7.5-11.8-15.1-17.8-22.6c-0.9-1.1-2.6-2.1-3.9-2.1c-8.1-0.2-16.3-0.1-24.5-0.1c-0.7,0-1.5,0.1-2.7,0.2
	c1,7.2,2.1,14.3,3.1,21.8c-16,0-31.7,0-47.7,0c0.4,1.4,0.6,2.3,1,3.1c4,10.2,11.1,17.2,21.2,21.4c9.4,3.9,19.4,5.2,29.3,6.8
	c17.7,2.8,35.4,5.4,53.1,8.1c2.7,0.4,3.3,1.5,1.9,3.9c-0.7,1.2-1.7,2.3-2.6,3.5c-11.2,14.4-22.4,28.8-33.5,43.2
	c-1.3,1.7-2.5,1.9-4.3,1.4c-33.5-9.2-65.5-22.1-94.2-42c-2.7-1.9-5.5-3.7-8.1-5.7"/>
<path class="st0" d="M406.3,516.9c0,0-85.9,2.2-158.1-19.3l-25.8-29.3l-23.6-26.2L181,405.8c0,0,21.3-31.9,24.7-31.9
	c3.5,0,46-10.1,58.7-8.9c12.7,1.2,83.2,6.6,86.6,8.9c3.5,2.3,47.5,35.1,47.5,35.1l48.3,48.1L406.3,516.9z"/>
<path class="st0" d="M675,411.4c0,0-28.7,45.8-64.6,65.2c-35.9,19.3-62.4,7.8-62.4,7.8l-39.1-5.5c0,0,0.9-29.4,0-31.4
	s2.6-38,4.6-38.9s25.9-14.7,32.2-15.5c6.3-0.9,44.6-4,50.4-3.7c5.8,0.3,51.8,0,51.8,0L675,411.4z"/>
</svg>
